<svg width="600" height="600" viewBox="0 0 600 600" fill="none" xmlns="http://www.w3.org/2000/svg">
<g opacity="0.2">
<path d="M75.8413 367.808L249.3 498.649L455.419 168.727L294.667 284.556L415.999 470.583" stroke="#979797"/>
<path d="M294.079 284.452L115.624 195.074L249.876 497.764" stroke="#979797"/>
<path d="M292.184 283.444L277.46 123.669L115.74 194.794" stroke="#979797"/>
<path d="M295.219 284.056L450.486 341.829L414.908 473.543" stroke="#979797"/>
<path fill-rule="evenodd" clip-rule="evenodd" d="M275.195 124.878L358.068 106.448L454.058 168.166L275.195 124.878Z" stroke="#979797"/>
<path d="M356.064 103.978C354.815 105.185 354.771 107.167 355.964 108.404C357.158 109.642 359.138 109.667 360.387 108.46C361.636 107.253 361.68 105.271 360.486 104.033C359.292 102.796 357.312 102.771 356.064 103.978Z" fill="#7B7B7B"/>
<path d="M249.702 497.989L418.026 470.841L74.9268 365.816L114.404 195.688L454.736 167.824L450.727 342.055L75.5539 365.209" stroke="#979797"/>
<path d="M74.0133 366.377L156.641 286.506L289.349 291.146" stroke="#979797"/>
<path d="M276.644 123.249L153.69 288.711" stroke="#979797"/>
</g>
<path d="M449.385 339.483C448.196 340.632 448.154 342.518 449.29 343.697C450.427 344.875 452.312 344.898 453.5 343.749C454.689 342.6 454.731 340.714 453.595 339.535C452.458 338.357 450.573 338.334 449.385 339.483Z" fill="#C4C4C4"/>
<path d="M444.093 333.998C439.848 338.102 439.697 344.839 443.756 349.047C447.815 353.254 454.547 353.338 458.792 349.234C463.037 345.13 463.188 338.393 459.129 334.186C455.07 329.978 448.338 329.894 444.093 333.998Z" stroke="#CACACA"/>
<path d="M74.7083 363.93C73.5197 365.079 73.4774 366.965 74.6139 368.143C75.7504 369.321 77.6354 369.345 78.824 368.196C80.0127 367.047 80.055 365.16 78.9185 363.982C77.782 362.804 75.897 362.78 74.7083 363.93Z" fill="#C4C4C4"/>
<path d="M69.4168 358.444C65.1716 362.548 65.0206 369.286 69.0796 373.493C73.1386 377.701 79.8705 377.785 84.1158 373.681C88.361 369.577 88.512 362.84 84.453 358.632C80.394 354.425 73.6621 354.341 69.4168 358.444Z" stroke="#CACACA"/>
<path d="M207.632 402.557C206.444 403.706 206.401 405.592 207.538 406.77C208.674 407.948 210.559 407.972 211.748 406.823C212.937 405.674 212.979 403.787 211.843 402.609C210.706 401.431 208.821 401.407 207.632 402.557Z" fill="#C4C4C4"/>
<path d="M202.341 397.071C198.095 401.175 197.944 407.913 202.003 412.12C206.062 416.328 212.794 416.412 217.04 412.308C221.285 408.204 221.436 401.467 217.377 397.259C213.318 393.052 206.586 392.968 202.341 397.071Z" stroke="#CACACA"/>
<path d="M275.356 121.27C274.167 122.419 274.125 124.305 275.261 125.483C276.398 126.661 278.283 126.685 279.471 125.536C280.66 124.387 280.702 122.5 279.566 121.322C278.429 120.144 276.544 120.12 275.356 121.27Z" fill="#C4C4C4"/>
<path d="M270.064 115.785C265.819 119.888 265.668 126.626 269.727 130.833C273.786 135.041 280.517 135.125 284.763 131.021C289.008 126.917 289.159 120.18 285.1 115.972C281.041 111.765 274.309 111.681 270.064 115.785Z" stroke="#CACACA"/>
<path d="M113.879 191.838C112.631 193.045 112.586 195.027 113.78 196.264C114.974 197.502 116.954 197.526 118.202 196.319C119.451 195.113 119.495 193.131 118.302 191.893C117.108 190.656 115.128 190.631 113.879 191.838Z" fill="#7B7B7B"/>
<path d="M415.185 468.061C413.937 469.268 413.892 471.249 415.086 472.487C416.28 473.724 418.26 473.749 419.508 472.542C420.757 471.335 420.802 469.353 419.608 468.116C418.414 466.878 416.434 466.854 415.185 468.061Z" fill="#7B7B7B"/>
<path d="M450.172 165.462C448.21 167.359 448.14 170.473 450.016 172.418C451.892 174.362 455.003 174.401 456.965 172.504C458.927 170.608 458.997 167.494 457.121 165.549C455.245 163.604 452.134 163.566 450.172 165.462Z" fill="#89FCA3"/>
<path d="M442.761 157.78C436.518 163.815 436.295 173.723 442.265 179.911C448.234 186.098 458.134 186.222 464.377 180.187C470.62 174.152 470.842 164.244 464.873 158.056C458.904 151.869 449.004 151.745 442.761 157.78Z" stroke="#89FCA3"/>
<path d="M490.38 175.101H93.8013V231.444H490.38V175.101Z" fill="#F9F9F9"/>
<path fill-rule="evenodd" clip-rule="evenodd" d="M134.705 200.681V212.663H132.641V200.681H130.907V198.89H132.641V197.651C132.641 195.704 132.916 194.378 133.467 193.67C134.017 192.963 134.981 192.61 136.357 192.61L139.137 192.803L139.109 194.511C138.082 194.474 137.233 194.456 136.563 194.456C135.893 194.456 135.416 194.676 135.132 195.117C134.848 195.557 134.705 196.411 134.705 197.678V198.89H138.696V200.681H134.705ZM141.173 212.663V198.89H143.21V200.764C144.806 199.662 146.485 198.936 148.247 198.587V200.681C147.476 200.828 146.673 201.057 145.838 201.37C145.003 201.682 144.366 201.957 143.926 202.196L143.237 202.554V212.663H141.173ZM149.815 205.749C149.815 203.233 150.265 201.415 151.164 200.295C152.063 199.175 153.581 198.615 155.719 198.615C157.857 198.615 159.37 199.175 160.26 200.295C161.15 201.415 161.595 203.233 161.595 205.749C161.595 208.265 161.173 210.092 160.329 211.231C159.485 212.369 157.944 212.939 155.705 212.939C153.467 212.939 151.925 212.369 151.081 211.231C150.237 210.092 149.815 208.265 149.815 205.749ZM151.935 205.722C151.935 207.723 152.178 209.128 152.664 209.936C153.15 210.744 154.169 211.148 155.719 211.148C157.269 211.148 158.283 210.749 158.76 209.95C159.237 209.151 159.476 207.742 159.476 205.722C159.476 203.702 159.21 202.311 158.678 201.549C158.146 200.786 157.159 200.405 155.719 200.405C154.279 200.405 153.288 200.786 152.747 201.549C152.205 202.311 151.935 203.702 151.935 205.722ZM167.017 212.663H164.953V198.89H166.99V199.854C168.366 199.028 169.705 198.615 171.008 198.615C172.714 198.615 173.907 199.083 174.586 200.02C175.191 199.652 175.976 199.327 176.939 199.042C177.902 198.757 178.751 198.615 179.485 198.615C181.32 198.615 182.554 199.106 183.187 200.089C183.82 201.071 184.136 202.839 184.136 205.391V212.663H182.072V205.446C182.072 203.536 181.889 202.228 181.522 201.521C181.155 200.814 180.375 200.46 179.182 200.46C178.577 200.46 177.953 200.548 177.311 200.722C176.668 200.897 176.173 201.067 175.824 201.232L175.302 201.48C175.54 202.086 175.659 203.426 175.659 205.501V212.663H173.595V205.556C173.595 203.573 173.416 202.228 173.058 201.521C172.701 200.814 171.916 200.46 170.705 200.46C170.118 200.46 169.517 200.548 168.902 200.722C168.288 200.897 167.815 201.067 167.485 201.232L167.017 201.48V212.663Z" fill="#1C3C55"/>
<path fill-rule="evenodd" clip-rule="evenodd" d="M435.687 198.177H431.311V204.76C431.311 206.339 431.426 207.377 431.655 207.873C431.885 208.369 432.43 208.617 433.293 208.617L435.742 208.451L435.88 210.159C434.651 210.361 433.715 210.462 433.073 210.462C431.641 210.462 430.651 210.113 430.1 209.415C429.55 208.718 429.274 207.386 429.274 205.421V198.177H427.32V196.386H429.274V192.172H431.311V196.386H435.687V198.177ZM437.614 203.245C437.614 200.729 438.063 198.911 438.962 197.791C439.862 196.671 441.38 196.111 443.517 196.111C445.655 196.111 447.169 196.671 448.059 197.791C448.949 198.911 449.394 200.729 449.394 203.245C449.394 205.761 448.972 207.588 448.128 208.727C447.284 209.865 445.742 210.435 443.504 210.435C441.265 210.435 439.724 209.865 438.88 208.727C438.036 207.588 437.614 205.761 437.614 203.245ZM439.733 203.218C439.733 205.219 439.976 206.624 440.462 207.432C440.949 208.24 441.967 208.644 443.517 208.644C445.068 208.644 446.082 208.245 446.559 207.446C447.036 206.647 447.274 205.238 447.274 203.218C447.274 201.198 447.008 199.807 446.476 199.044C445.944 198.282 444.958 197.901 443.517 197.901C442.077 197.901 441.086 198.282 440.545 199.044C440.004 199.807 439.733 201.198 439.733 203.218Z" fill="#1C3C55"/>
<path d="M505.392 250.226H108.814V306.569H505.392V250.226Z" fill="#F9F9F9"/>
<path d="M490.38 325.35H93.8013V381.694H490.38V325.35Z" fill="#F9F9F9"/>
<path d="M490.38 400.475H93.8013V456.818H490.38V400.475Z" fill="#F9F9F9"/>
<path fill-rule="evenodd" clip-rule="evenodd" d="M136.082 271.611V285.644H134.444V273.439L130.826 275.821L130.081 274.588L134.55 271.611H136.082ZM145.658 271.377C146.821 271.377 147.765 271.597 148.488 272.036C150.02 272.943 150.786 275.211 150.786 278.84C150.786 281.406 150.361 283.217 149.51 284.273C148.658 285.329 147.382 285.857 145.679 285.857C143.977 285.857 142.697 285.336 141.838 284.294C140.98 283.252 140.551 281.395 140.551 278.723C140.551 276.051 140.973 274.159 141.817 273.046C142.661 271.933 143.941 271.377 145.658 271.377ZM145.679 272.844C144.871 272.844 144.232 273.014 143.764 273.354C142.757 274.049 142.253 275.885 142.253 278.861C142.253 280.959 142.53 282.409 143.083 283.21C143.636 284.01 144.502 284.411 145.679 284.411C146.857 284.411 147.722 284.007 148.275 283.199C148.829 282.391 149.105 280.892 149.105 278.702C149.105 276.512 148.839 274.988 148.307 274.13C147.775 273.273 146.899 272.844 145.679 272.844ZM159.915 271.611V285.644H158.277V273.439L154.659 275.821L153.915 274.588L158.383 271.611H159.915ZM169.491 271.377C170.655 271.377 171.598 271.597 172.322 272.036C173.854 272.943 174.62 275.211 174.62 278.84C174.62 281.406 174.194 283.217 173.343 284.273C172.492 285.329 171.215 285.857 169.513 285.857C167.81 285.857 166.53 285.336 165.672 284.294C164.813 283.252 164.384 281.395 164.384 278.723C164.384 276.051 164.806 274.159 165.65 273.046C166.494 271.933 167.775 271.377 169.491 271.377ZM169.513 272.844C168.704 272.844 168.066 273.014 167.597 273.354C166.59 274.049 166.087 275.885 166.087 278.861C166.087 280.959 166.363 282.409 166.916 283.21C167.47 284.01 168.335 284.411 169.513 284.411C170.69 284.411 171.555 284.007 172.109 283.199C172.662 282.391 172.939 280.892 172.939 278.702C172.939 276.512 172.673 274.988 172.141 274.13C171.609 273.273 170.733 272.844 169.513 272.844ZM183.749 271.611V285.644H182.11V273.439L178.493 275.821L177.748 274.588L182.217 271.611H183.749ZM196.259 271.611V285.644H194.621V273.439L191.003 275.821L190.258 274.588L194.727 271.611H196.259ZM207.582 271.611V285.644H205.943V273.439L202.326 275.821L201.581 274.588L206.05 271.611H207.582ZM229.668 271.377C230.832 271.377 231.775 271.597 232.498 272.036C234.031 272.943 234.797 275.211 234.797 278.84C234.797 281.406 234.371 283.217 233.52 284.273C232.669 285.329 231.392 285.857 229.69 285.857C227.987 285.857 226.707 285.336 225.849 284.294C224.99 283.252 224.561 281.395 224.561 278.723C224.561 276.051 224.983 274.159 225.827 273.046C226.671 271.933 227.952 271.377 229.668 271.377ZM229.69 272.844C228.881 272.844 228.242 273.014 227.774 273.354C226.767 274.049 226.263 275.885 226.263 278.861C226.263 280.959 226.54 282.409 227.093 283.21C227.647 284.01 228.512 284.411 229.69 284.411C230.867 284.411 231.732 284.007 232.286 283.199C232.839 282.391 233.116 280.892 233.116 278.702C233.116 276.512 232.85 274.988 232.318 274.13C231.786 273.273 230.91 272.844 229.69 272.844ZM218.905 271.611V285.644H217.266V273.439L213.649 275.821L212.904 274.588L217.373 271.611H218.905Z" fill="#1C3C55"/>
<path fill-rule="evenodd" clip-rule="evenodd" d="M136.082 347.987V362.021H134.444V349.816L130.826 352.197L130.081 350.964L134.55 347.987H136.082ZM145.658 347.754C146.821 347.754 147.765 347.973 148.488 348.413C150.02 349.32 150.786 351.588 150.786 355.217C150.786 357.782 150.361 359.593 149.51 360.649C148.658 361.705 147.382 362.233 145.679 362.233C143.977 362.233 142.697 361.712 141.838 360.671C140.98 359.629 140.551 357.772 140.551 355.1C140.551 352.428 140.973 350.535 141.817 349.423C142.661 348.31 143.941 347.754 145.658 347.754ZM145.679 349.221C144.871 349.221 144.232 349.391 143.764 349.731C142.757 350.426 142.253 352.261 142.253 355.238C142.253 357.336 142.53 358.785 143.083 359.586C143.636 360.387 144.502 360.788 145.679 360.788C146.857 360.788 147.722 360.384 148.275 359.576C148.829 358.768 149.105 357.269 149.105 355.079C149.105 352.889 148.839 351.365 148.307 350.507C147.775 349.65 146.899 349.221 145.679 349.221ZM158.168 347.754C159.332 347.754 160.275 347.973 160.999 348.413C162.531 349.32 163.297 351.588 163.297 355.217C163.297 357.782 162.871 359.593 162.02 360.649C161.169 361.705 159.892 362.233 158.19 362.233C156.487 362.233 155.207 361.712 154.349 360.671C153.49 359.629 153.061 357.772 153.061 355.1C153.061 352.428 153.483 350.535 154.327 349.423C155.172 348.31 156.452 347.754 158.168 347.754ZM158.19 349.221C157.381 349.221 156.743 349.391 156.275 349.731C155.267 350.426 154.764 352.261 154.764 355.238C154.764 357.336 155.04 358.785 155.594 359.586C156.147 360.387 157.012 360.788 158.19 360.788C159.367 360.788 160.233 360.384 160.786 359.576C161.339 358.768 161.616 357.269 161.616 355.079C161.616 352.889 161.35 351.365 160.818 350.507C160.286 349.65 159.41 349.221 158.19 349.221ZM169.491 347.754C170.655 347.754 171.598 347.973 172.322 348.413C173.854 349.32 174.62 351.588 174.62 355.217C174.62 357.782 174.194 359.593 173.343 360.649C172.492 361.705 171.215 362.233 169.513 362.233C167.81 362.233 166.53 361.712 165.672 360.671C164.813 359.629 164.384 357.772 164.384 355.1C164.384 352.428 164.806 350.535 165.65 349.423C166.494 348.31 167.775 347.754 169.491 347.754ZM169.513 349.221C168.704 349.221 168.066 349.391 167.597 349.731C166.59 350.426 166.087 352.261 166.087 355.238C166.087 357.336 166.363 358.785 166.916 359.586C167.47 360.387 168.335 360.788 169.513 360.788C170.69 360.788 171.555 360.384 172.109 359.576C172.662 358.768 172.939 357.269 172.939 355.079C172.939 352.889 172.673 351.365 172.141 350.507C171.609 349.65 170.733 349.221 169.513 349.221ZM183.749 347.987V362.021H182.11V349.816L178.493 352.197L177.748 350.964L182.217 347.987H183.749ZM193.325 347.754C194.488 347.754 195.431 347.973 196.155 348.413C197.687 349.32 198.453 351.588 198.453 355.217C198.453 357.782 198.027 359.593 197.176 360.649C196.325 361.705 195.048 362.233 193.346 362.233C191.643 362.233 190.363 361.712 189.505 360.671C188.647 359.629 188.217 357.772 188.217 355.1C188.217 352.428 188.639 350.535 189.484 349.423C190.328 348.31 191.608 347.754 193.325 347.754ZM193.346 349.221C192.537 349.221 191.899 349.391 191.431 349.731C190.423 350.426 189.92 352.261 189.92 355.238C189.92 357.336 190.196 358.785 190.75 359.586C191.303 360.387 192.168 360.788 193.346 360.788C194.523 360.788 195.389 360.384 195.942 359.576C196.495 358.768 196.772 357.269 196.772 355.079C196.772 352.889 196.506 351.365 195.974 350.507C195.442 349.65 194.566 349.221 193.346 349.221ZM207.582 347.987V362.021H205.943V349.816L202.326 352.197L201.581 350.964L206.05 347.987H207.582ZM217.158 347.754C218.321 347.754 219.265 347.973 219.988 348.413C221.52 349.32 222.286 351.588 222.286 355.217C222.286 357.782 221.861 359.593 221.009 360.649C220.158 361.705 218.882 362.233 217.179 362.233C215.477 362.233 214.196 361.712 213.338 360.671C212.48 359.629 212.051 357.772 212.051 355.1C212.051 352.428 212.473 350.535 213.317 349.423C214.161 348.31 215.441 347.754 217.158 347.754ZM217.179 349.221C216.371 349.221 215.732 349.391 215.264 349.731C214.257 350.426 213.753 352.261 213.753 355.238C213.753 357.336 214.03 358.785 214.583 359.586C215.136 360.387 216.002 360.788 217.179 360.788C218.357 360.788 219.222 360.384 219.775 359.576C220.329 358.768 220.605 357.269 220.605 355.079C220.605 352.889 220.339 351.365 219.807 350.507C219.275 349.65 218.399 349.221 217.179 349.221ZM231.415 347.987V362.021H229.777V349.816L226.159 352.197L225.414 350.964L229.883 347.987H231.415Z" fill="#1C3C55"/>
<path fill-rule="evenodd" clip-rule="evenodd" d="M136.082 423.112V437.145H134.444V424.941L130.826 427.322L130.081 426.089L134.55 423.112H136.082ZM145.658 422.878C146.821 422.878 147.765 423.098 148.488 423.537C150.02 424.445 150.786 426.713 150.786 430.341C150.786 432.907 150.361 434.718 149.51 435.774C148.658 436.83 147.382 437.358 145.679 437.358C143.977 437.358 142.697 436.837 141.838 435.795C140.98 434.753 140.551 432.896 140.551 430.224C140.551 427.552 140.973 425.66 141.817 424.547C142.661 423.435 143.941 422.878 145.658 422.878ZM145.679 424.345C144.871 424.345 144.232 424.515 143.764 424.856C142.757 425.55 142.253 427.386 142.253 430.363C142.253 432.461 142.53 433.91 143.083 434.711C143.636 435.512 144.502 435.912 145.679 435.912C146.857 435.912 147.722 435.508 148.275 434.7C148.829 433.892 149.105 432.393 149.105 430.203C149.105 428.013 148.839 426.489 148.307 425.632C147.775 424.774 146.899 424.345 145.679 424.345ZM159.915 423.112V437.145H158.277V424.941L154.659 427.322L153.915 426.089L158.383 423.112H159.915ZM169.491 422.878C170.655 422.878 171.598 423.098 172.322 423.537C173.854 424.445 174.62 426.713 174.62 430.341C174.62 432.907 174.194 434.718 173.343 435.774C172.492 436.83 171.215 437.358 169.513 437.358C167.81 437.358 166.53 436.837 165.672 435.795C164.813 434.753 164.384 432.896 164.384 430.224C164.384 427.552 164.806 425.66 165.65 424.547C166.494 423.435 167.775 422.878 169.491 422.878ZM169.513 424.345C168.704 424.345 168.066 424.515 167.597 424.856C166.59 425.55 166.087 427.386 166.087 430.363C166.087 432.461 166.363 433.91 166.916 434.711C167.47 435.512 168.335 435.912 169.513 435.912C170.69 435.912 171.555 435.508 172.109 434.7C172.662 433.892 172.939 432.393 172.939 430.203C172.939 428.013 172.673 426.489 172.141 425.632C171.609 424.774 170.733 424.345 169.513 424.345ZM183.749 423.112V437.145H182.11V424.941L178.493 427.322L177.748 426.089L182.217 423.112H183.749ZM193.325 422.878C194.488 422.878 195.431 423.098 196.155 423.537C197.687 424.445 198.453 426.713 198.453 430.341C198.453 432.907 198.027 434.718 197.176 435.774C196.325 436.83 195.048 437.358 193.346 437.358C191.643 437.358 190.363 436.837 189.505 435.795C188.647 434.753 188.217 432.896 188.217 430.224C188.217 427.552 188.639 425.66 189.484 424.547C190.328 423.435 191.608 422.878 193.325 422.878ZM193.346 424.345C192.537 424.345 191.899 424.515 191.431 424.856C190.423 425.55 189.92 427.386 189.92 430.363C189.92 432.461 190.196 433.91 190.75 434.711C191.303 435.512 192.168 435.912 193.346 435.912C194.523 435.912 195.389 435.508 195.942 434.7C196.495 433.892 196.772 432.393 196.772 430.203C196.772 428.013 196.506 426.489 195.974 425.632C195.442 424.774 194.566 424.345 193.346 424.345ZM217.158 422.878C218.321 422.878 219.265 423.098 219.988 423.537C221.52 424.445 222.286 426.713 222.286 430.341C222.286 432.907 221.861 434.718 221.009 435.774C220.158 436.83 218.882 437.358 217.179 437.358C215.477 437.358 214.196 436.837 213.338 435.795C212.48 434.753 212.051 432.896 212.051 430.224C212.051 427.552 212.473 425.66 213.317 424.547C214.161 423.435 215.441 422.878 217.158 422.878ZM217.179 424.345C216.371 424.345 215.732 424.515 215.264 424.856C214.257 425.55 213.753 427.386 213.753 430.363C213.753 432.461 214.03 433.91 214.583 434.711C215.136 435.512 216.002 435.912 217.179 435.912C218.357 435.912 219.222 435.508 219.775 434.7C220.329 433.892 220.605 432.393 220.605 430.203C220.605 428.013 220.339 426.489 219.807 425.632C219.275 424.774 218.399 424.345 217.179 424.345ZM229.668 422.878C230.832 422.878 231.775 423.098 232.498 423.537C234.031 424.445 234.797 426.713 234.797 430.341C234.797 432.907 234.371 434.718 233.52 435.774C232.669 436.83 231.392 437.358 229.69 437.358C227.987 437.358 226.707 436.837 225.849 435.795C224.99 434.753 224.561 432.896 224.561 430.224C224.561 427.552 224.983 425.66 225.827 424.547C226.671 423.435 227.952 422.878 229.668 422.878ZM229.69 424.345C228.881 424.345 228.242 424.515 227.774 424.856C226.767 425.55 226.263 427.386 226.263 430.363C226.263 432.461 226.54 433.91 227.093 434.711C227.647 435.512 228.512 435.912 229.69 435.912C230.867 435.912 231.732 435.508 232.286 434.7C232.839 433.892 233.116 432.393 233.116 430.203C233.116 428.013 232.85 426.489 232.318 425.632C231.786 424.774 230.91 424.345 229.69 424.345ZM205.899 422.878C207.062 422.878 208.005 423.098 208.729 423.537C210.261 424.445 211.027 426.713 211.027 430.341C211.027 432.907 210.601 434.718 209.75 435.774C208.899 436.83 207.622 437.358 205.92 437.358C204.217 437.358 202.937 436.837 202.079 435.795C201.221 434.753 200.791 432.896 200.791 430.224C200.791 427.552 201.213 425.66 202.058 424.547C202.902 423.435 204.182 422.878 205.899 422.878ZM205.92 424.345C205.111 424.345 204.473 424.515 204.005 424.856C202.997 425.55 202.494 427.386 202.494 430.363C202.494 432.461 202.77 433.91 203.324 434.711C203.877 435.512 204.742 435.912 205.92 435.912C207.097 435.912 207.963 435.508 208.516 434.7C209.069 433.892 209.346 432.393 209.346 430.203C209.346 428.013 209.08 426.489 208.548 425.632C208.016 424.774 207.14 424.345 205.92 424.345Z" fill="#1C3C55"/>
<path fill-rule="evenodd" clip-rule="evenodd" d="M386.289 272.863V286.896H384.651V274.692L381.033 277.073L380.289 275.84L384.757 272.863H386.289ZM410.123 272.863V286.896H408.484V274.692L404.867 277.073L404.122 275.84L408.591 272.863H410.123ZM397.612 272.863V286.896H395.974V274.692L392.356 277.073L391.611 275.84L396.08 272.863H397.612ZM419.699 272.629C420.862 272.629 421.805 272.849 422.529 273.288C424.061 274.195 424.827 276.463 424.827 280.092C424.827 282.658 424.401 284.469 423.55 285.525C422.699 286.581 421.422 287.109 419.72 287.109C418.017 287.109 416.737 286.588 415.879 285.546C415.021 284.504 414.591 282.647 414.591 279.975C414.591 277.303 415.013 275.411 415.858 274.298C416.702 273.185 417.982 272.629 419.699 272.629ZM419.72 274.096C418.911 274.096 418.273 274.266 417.805 274.606C416.797 275.301 416.294 277.137 416.294 280.113C416.294 282.211 416.57 283.661 417.124 284.462C417.677 285.263 418.542 285.663 419.72 285.663C420.897 285.663 421.763 285.259 422.316 284.451C422.869 283.643 423.146 282.144 423.146 279.954C423.146 277.764 422.88 276.24 422.348 275.383C421.816 274.525 420.94 274.096 419.72 274.096ZM433.956 272.863V286.896H432.317V274.692L428.7 277.073L427.955 275.84L432.424 272.863H433.956ZM443.532 272.629C444.695 272.629 445.639 272.849 446.362 273.288C447.894 274.195 448.66 276.463 448.66 280.092C448.66 282.658 448.235 284.469 447.383 285.525C446.532 286.581 445.256 287.109 443.553 287.109C441.851 287.109 440.57 286.588 439.712 285.546C438.854 284.504 438.425 282.647 438.425 279.975C438.425 277.303 438.847 275.411 439.691 274.298C440.535 273.185 441.815 272.629 443.532 272.629ZM443.553 274.096C442.745 274.096 442.106 274.266 441.638 274.606C440.631 275.301 440.127 277.137 440.127 280.113C440.127 282.211 440.404 283.661 440.957 284.462C441.51 285.263 442.376 285.663 443.553 285.663C444.731 285.663 445.596 285.259 446.149 284.451C446.703 283.643 446.979 282.144 446.979 279.954C446.979 277.764 446.713 276.24 446.181 275.383C445.649 274.525 444.773 274.096 443.553 274.096ZM457.789 272.863V286.896H456.151V274.692L452.533 277.073L451.788 275.84L456.257 272.863H457.789ZM467.365 272.629C468.528 272.629 469.472 272.849 470.195 273.288C471.727 274.195 472.494 276.463 472.494 280.092C472.494 282.658 472.068 284.469 471.217 285.525C470.366 286.581 469.089 287.109 467.386 287.109C465.684 287.109 464.404 286.588 463.545 285.546C462.687 284.504 462.258 282.647 462.258 279.975C462.258 277.303 462.68 275.411 463.524 274.298C464.368 273.185 465.649 272.629 467.365 272.629ZM467.386 274.096C466.578 274.096 465.939 274.266 465.471 274.606C464.464 275.301 463.96 277.137 463.96 280.113C463.96 282.211 464.237 283.661 464.79 284.462C465.344 285.263 466.209 285.663 467.386 285.663C468.564 285.663 469.429 285.259 469.983 284.451C470.536 283.643 470.812 282.144 470.812 279.954C470.812 277.764 470.546 276.24 470.014 275.383C469.482 274.525 468.606 274.096 467.386 274.096ZM481.623 272.863V286.896H479.984V274.692L476.366 277.073L475.622 275.84L480.09 272.863H481.623Z" fill="#1C3C55"/>
<path fill-rule="evenodd" clip-rule="evenodd" d="M386.289 347.987V362.021H384.651V349.816L381.033 352.197L380.289 350.964L384.757 347.987H386.289ZM395.865 347.754C397.029 347.754 397.972 347.973 398.696 348.413C400.228 349.32 400.994 351.588 400.994 355.217C400.994 357.782 400.568 359.593 399.717 360.649C398.866 361.705 397.589 362.233 395.887 362.233C394.184 362.233 392.904 361.712 392.046 360.671C391.187 359.629 390.758 357.772 390.758 355.1C390.758 352.428 391.18 350.535 392.024 349.423C392.868 348.31 394.149 347.754 395.865 347.754ZM395.887 349.221C395.078 349.221 394.44 349.391 393.971 349.731C392.964 350.426 392.461 352.261 392.461 355.238C392.461 357.336 392.737 358.785 393.29 359.586C393.844 360.387 394.709 360.788 395.887 360.788C397.064 360.788 397.929 360.384 398.483 359.576C399.036 358.768 399.313 357.269 399.313 355.079C399.313 352.889 399.047 351.365 398.515 350.507C397.983 349.65 397.107 349.221 395.887 349.221ZM419.699 347.754C420.862 347.754 421.805 347.973 422.529 348.413C424.061 349.32 424.827 351.588 424.827 355.217C424.827 357.782 424.401 359.593 423.55 360.649C422.699 361.705 421.422 362.233 419.72 362.233C418.017 362.233 416.737 361.712 415.879 360.671C415.021 359.629 414.591 357.772 414.591 355.1C414.591 352.428 415.013 350.535 415.858 349.423C416.702 348.31 417.982 347.754 419.699 347.754ZM419.72 349.221C418.911 349.221 418.273 349.391 417.805 349.731C416.797 350.426 416.294 352.261 416.294 355.238C416.294 357.336 416.57 358.785 417.124 359.586C417.677 360.387 418.542 360.788 419.72 360.788C420.897 360.788 421.763 360.384 422.316 359.576C422.869 358.768 423.146 357.269 423.146 355.079C423.146 352.889 422.88 351.365 422.348 350.507C421.816 349.65 420.94 349.221 419.72 349.221ZM408.439 347.754C409.603 347.754 410.546 347.973 411.269 348.413C412.802 349.32 413.568 351.588 413.568 355.217C413.568 357.782 413.142 359.593 412.291 360.649C411.44 361.705 410.163 362.233 408.461 362.233C406.758 362.233 405.478 361.712 404.62 360.671C403.761 359.629 403.332 357.772 403.332 355.1C403.332 352.428 403.754 350.535 404.598 349.423C405.442 348.31 406.723 347.754 408.439 347.754ZM408.461 349.221C407.652 349.221 407.014 349.391 406.545 349.731C405.538 350.426 405.034 352.261 405.034 355.238C405.034 357.336 405.311 358.785 405.864 359.586C406.418 360.387 407.283 360.788 408.461 360.788C409.638 360.788 410.503 360.384 411.057 359.576C411.61 358.768 411.887 357.269 411.887 355.079C411.887 352.889 411.621 351.365 411.089 350.507C410.557 349.65 409.681 349.221 408.461 349.221ZM433.956 347.987V362.021H432.317V349.816L428.7 352.197L427.955 350.964L432.424 347.987H433.956ZM443.532 347.754C444.695 347.754 445.639 347.973 446.362 348.413C447.894 349.32 448.66 351.588 448.66 355.217C448.66 357.782 448.235 359.593 447.383 360.649C446.532 361.705 445.256 362.233 443.553 362.233C441.851 362.233 440.57 361.712 439.712 360.671C438.854 359.629 438.425 357.772 438.425 355.1C438.425 352.428 438.847 350.535 439.691 349.423C440.535 348.31 441.815 347.754 443.532 347.754ZM443.553 349.221C442.745 349.221 442.106 349.391 441.638 349.731C440.631 350.426 440.127 352.261 440.127 355.238C440.127 357.336 440.404 358.785 440.957 359.586C441.51 360.387 442.376 360.788 443.553 360.788C444.731 360.788 445.596 360.384 446.149 359.576C446.703 358.768 446.979 357.269 446.979 355.079C446.979 352.889 446.713 351.365 446.181 350.507C445.649 349.65 444.773 349.221 443.553 349.221ZM457.789 347.987V362.021H456.151V349.816L452.533 352.197L451.788 350.964L456.257 347.987H457.789ZM467.365 347.754C468.528 347.754 469.472 347.973 470.195 348.413C471.727 349.32 472.494 351.588 472.494 355.217C472.494 357.782 472.068 359.593 471.217 360.649C470.366 361.705 469.089 362.233 467.386 362.233C465.684 362.233 464.404 361.712 463.545 360.671C462.687 359.629 462.258 357.772 462.258 355.1C462.258 352.428 462.68 350.535 463.524 349.423C464.368 348.31 465.649 347.754 467.365 347.754ZM467.386 349.221C466.578 349.221 465.939 349.391 465.471 349.731C464.464 350.426 463.96 352.261 463.96 355.238C463.96 357.336 464.237 358.785 464.79 359.586C465.344 360.387 466.209 360.788 467.386 360.788C468.564 360.788 469.429 360.384 469.983 359.576C470.536 358.768 470.812 357.269 470.812 355.079C470.812 352.889 470.546 351.365 470.014 350.507C469.482 349.65 468.606 349.221 467.386 349.221ZM481.623 347.987V362.021H479.984V349.816L476.366 352.197L475.622 350.964L480.09 347.987H481.623Z" fill="#1C3C55"/>
<path fill-rule="evenodd" clip-rule="evenodd" d="M386.289 423.112V437.145H384.651V424.941L381.033 427.322L380.289 426.089L384.757 423.112H386.289ZM410.123 423.112V437.145H408.484V424.941L404.867 427.322L404.122 426.089L408.591 423.112H410.123ZM397.612 423.112V437.145H395.974V424.941L392.356 427.322L391.611 426.089L396.08 423.112H397.612ZM419.699 422.878C420.862 422.878 421.805 423.098 422.529 423.537C424.061 424.445 424.827 426.713 424.827 430.341C424.827 432.907 424.401 434.718 423.55 435.774C422.699 436.83 421.422 437.358 419.72 437.358C418.017 437.358 416.737 436.837 415.879 435.795C415.021 434.753 414.591 432.896 414.591 430.224C414.591 427.552 415.013 425.66 415.858 424.547C416.702 423.435 417.982 422.878 419.699 422.878ZM419.72 424.345C418.911 424.345 418.273 424.515 417.805 424.856C416.797 425.55 416.294 427.386 416.294 430.363C416.294 432.461 416.57 433.91 417.124 434.711C417.677 435.512 418.542 435.912 419.72 435.912C420.897 435.912 421.763 435.508 422.316 434.7C422.869 433.892 423.146 432.393 423.146 430.203C423.146 428.013 422.88 426.489 422.348 425.632C421.816 424.774 420.94 424.345 419.72 424.345ZM443.532 422.878C444.695 422.878 445.639 423.098 446.362 423.537C447.894 424.445 448.66 426.713 448.66 430.341C448.66 432.907 448.235 434.718 447.383 435.774C446.532 436.83 445.256 437.358 443.553 437.358C441.851 437.358 440.57 436.837 439.712 435.795C438.854 434.753 438.425 432.896 438.425 430.224C438.425 427.552 438.847 425.66 439.691 424.547C440.535 423.435 441.815 422.878 443.532 422.878ZM443.553 424.345C442.745 424.345 442.106 424.515 441.638 424.856C440.631 425.55 440.127 427.386 440.127 430.363C440.127 432.461 440.404 433.91 440.957 434.711C441.51 435.512 442.376 435.912 443.553 435.912C444.731 435.912 445.596 435.508 446.149 434.7C446.703 433.892 446.979 432.393 446.979 430.203C446.979 428.013 446.713 426.489 446.181 425.632C445.649 424.774 444.773 424.345 443.553 424.345ZM431.021 422.878C432.185 422.878 433.128 423.098 433.852 423.537C435.384 424.445 436.15 426.713 436.15 430.341C436.15 432.907 435.724 434.718 434.873 435.774C434.022 436.83 432.745 437.358 431.043 437.358C429.34 437.358 428.06 436.837 427.202 435.795C426.344 434.753 425.914 432.896 425.914 430.224C425.914 427.552 426.336 425.66 427.18 424.547C428.025 423.435 429.305 422.878 431.021 422.878ZM431.043 424.345C430.234 424.345 429.596 424.515 429.128 424.856C428.12 425.55 427.617 427.386 427.617 430.363C427.617 432.461 427.893 433.91 428.447 434.711C429 435.512 429.865 435.912 431.043 435.912C432.22 435.912 433.086 435.508 433.639 434.7C434.192 433.892 434.469 432.393 434.469 430.203C434.469 428.013 434.203 426.489 433.671 425.632C433.139 424.774 432.263 424.345 431.043 424.345ZM457.789 423.112V437.145H456.151V424.941L452.533 427.322L451.788 426.089L456.257 423.112H457.789ZM467.365 422.878C468.528 422.878 469.472 423.098 470.195 423.537C471.727 424.445 472.494 426.713 472.494 430.341C472.494 432.907 472.068 434.718 471.217 435.774C470.366 436.83 469.089 437.358 467.386 437.358C465.684 437.358 464.404 436.837 463.545 435.795C462.687 434.753 462.258 432.896 462.258 430.224C462.258 427.552 462.68 425.66 463.524 424.547C464.368 423.435 465.649 422.878 467.365 422.878ZM467.386 424.345C466.578 424.345 465.939 424.515 465.471 424.856C464.464 425.55 463.96 427.386 463.96 430.363C463.96 432.461 464.237 433.91 464.79 434.711C465.344 435.512 466.209 435.912 467.386 435.912C468.564 435.912 469.429 435.508 469.983 434.7C470.536 433.892 470.812 432.393 470.812 430.203C470.812 428.013 470.546 426.489 470.014 425.632C469.482 424.774 468.606 424.345 467.386 424.345ZM481.623 423.112V437.145H479.984V424.941L476.366 427.322L475.622 426.089L480.09 423.112H481.623Z" fill="#1C3C55"/>
<path fill-rule="evenodd" clip-rule="evenodd" d="M323.534 281.014H286.77H323.534Z" fill="black"/>
<path d="M323.534 281.014H286.77" stroke="black" stroke-width="1.2"/>
<path d="M314.972 289.146L314.499 288.687L323.171 281.081L323.571 280.73L323.197 280.353L315.076 272.16L315.58 271.735L324.572 280.765L314.972 289.146Z" fill="black" stroke="black"/>
<path fill-rule="evenodd" clip-rule="evenodd" d="M323.534 354.886H286.77H323.534Z" fill="black"/>
<path d="M323.534 354.886H286.77" stroke="black" stroke-width="1.2"/>
<path d="M314.972 363.019L314.499 362.559L323.171 354.953L323.571 354.603L323.197 354.226L315.076 346.033L315.58 345.608L324.572 354.638L314.972 363.019Z" fill="black" stroke="black"/>
<path fill-rule="evenodd" clip-rule="evenodd" d="M323.534 430.011H286.77H323.534Z" fill="#89FCA3"/>
<path d="M323.534 430.011H286.77" stroke="black" stroke-width="1.2"/>
<path d="M314.972 438.143L314.499 437.684L323.171 430.078L323.571 429.728L323.197 429.35L315.076 421.157L315.58 420.732L324.572 429.763L314.972 438.143Z" fill="#89FCA3" stroke="black"/>
<path fill-rule="evenodd" clip-rule="evenodd" d="M513.071 257.893C511.07 261.881 512.651 263.445 501.332 266.498C492.942 268.761 491.961 262.909 483.806 246.602C473.127 225.247 469.282 208.535 466.636 206.477C461.969 202.848 465.052 219.106 465.052 219.106C465.052 219.106 469.475 236.999 475.206 256.216C481.406 277.01 493.004 282.62 495.604 279.51C500.607 273.528 485.057 323.708 485.057 323.708C485.057 323.708 525.077 326.699 527.077 324.705C529.079 322.711 528.078 292.795 531.079 287.809C534.081 282.822 549.088 300.772 548.087 302.767C547.088 304.761 532.08 313.736 529.079 317.724C526.078 321.713 528.078 323.708 530.079 326.699C532.08 329.691 534.081 330.689 534.081 327.697C534.081 324.705 530.079 321.713 533.081 320.716C536.082 319.719 555.091 312.738 559.092 306.756C563.095 300.772 547.088 280.828 541.084 274.844C535.082 268.862 524.076 263.875 523.076 259.887C522.076 255.897 521.643 247.73 520.643 242.744C519.643 237.758 513.071 243.932 513.071 243.932C513.071 244.929 515.073 253.903 513.071 257.893Z" fill="white" stroke="#1C3C55"/>
<path fill-rule="evenodd" clip-rule="evenodd" d="M509.344 248.878C509.344 248.878 510.037 251.118 514.182 251.804C518.329 252.491 522.126 248.87 522.987 243.702C523.847 238.532 525.053 231.295 519.004 229.231C512.957 227.168 508.816 232.856 507.783 239.059C506.751 245.262 509.344 248.878 509.344 248.878Z" fill="white" stroke="#1C3C55"/>
<path fill-rule="evenodd" clip-rule="evenodd" d="M517.684 228.121C517.559 227.13 517.684 233.116 514.662 234.116C511.642 235.116 509.629 236.114 509.629 236.114C509.629 236.114 507.995 243.304 510.008 245.301C506.988 246.301 505.601 247.103 503.587 243.107C501.573 239.112 504.594 235.116 506.608 232.117C508.621 229.12 512.649 222.127 517.684 223.126C522.718 224.124 524.732 226.123 526.746 231.119C528.76 236.114 531.78 237.113 531.78 240.11C531.78 243.107 525.739 246.105 524.732 245.106C524.732 242.109 524.675 238.112 524.675 236.114C524.675 234.116 518.691 236.114 517.684 228.121Z" fill="white"/>
<path fill-rule="evenodd" clip-rule="evenodd" d="M517.684 228.121C517.559 227.13 517.684 233.116 514.662 234.116C511.642 235.116 509.629 236.114 509.629 236.114C509.629 236.114 507.995 243.304 510.008 245.301C506.988 246.301 505.601 247.103 503.587 243.107C501.573 239.112 504.594 235.116 506.608 232.117C508.621 229.12 512.649 222.127 517.684 223.126C522.718 224.124 524.732 226.123 526.746 231.119C528.76 236.114 531.78 237.113 531.78 240.11C531.78 243.107 525.739 246.105 524.732 245.106C524.732 242.109 524.675 238.112 524.675 236.114C524.675 234.116 518.691 236.114 517.684 228.121Z" stroke="#1C3C55"/>
<path fill-rule="evenodd" clip-rule="evenodd" d="M477.799 371.86C481.057 385.83 482.431 396.876 481.92 404.998C480.481 418.148 479.762 426.117 479.762 428.905C479.762 433.087 484.925 454.49 487.874 454.49C489.84 454.49 494.312 454.927 501.29 455.803C501.633 450.518 501.633 446.097 501.29 442.539C500.078 429.958 497.602 416.669 497.602 412.948C497.602 407.648 500.164 388.995 505.288 356.989C512.401 385.07 515.958 400.408 515.958 403.002C515.958 406.893 514.894 432.158 514.894 439.384C514.894 444.201 515.931 449.674 518.004 455.803C527.432 457.131 532.578 456.694 533.443 454.49C534.74 451.184 535.949 431.097 535.949 422.555C535.949 414.012 535.003 408.922 532.497 399.043C529.991 389.165 532.497 382.942 532.497 381.847C532.497 380.753 534.48 336.598 531.689 333.433C528.898 330.268 526.319 320.262 525.004 320.262C524.127 320.262 509.765 321.949 481.92 325.324C475.914 342.379 474.541 357.891 477.799 371.86Z" fill="white"/>
<path d="M479.293 427.472C479.293 422.754 479.603 419.239 480.4 413.113C480.457 412.681 480.457 412.681 480.513 412.252C480.568 411.823 480.591 411.648 480.624 411.396C480.707 410.751 480.775 410.212 480.838 409.697C481.51 404.203 481.684 400.275 481.293 395.575C481.112 393.402 480.728 390.642 480.103 386.873C479.856 385.381 479.582 383.794 479.191 381.569C479.119 381.161 479.046 380.742 478.945 380.173C478.821 379.467 478.821 379.467 478.695 378.755C478.491 377.594 478.338 376.723 478.188 375.861C477.644 372.74 477.221 370.207 476.841 367.768C475.692 360.394 476.171 346.406 476.491 342.888C476.841 339.04 479.254 330.997 480.838 326.655C482.358 322.49 482.364 325.432 482.383 326.655C482.416 328.729 479.182 335.634 478.188 342.888C476.857 352.594 477.72 363.302 478.379 367.528C478.757 369.957 479.179 372.482 479.721 375.594C479.871 376.454 480.024 377.325 480.228 378.484C480.354 379.197 480.354 379.197 480.478 379.903C480.578 380.472 480.652 380.891 480.724 381.299C481.116 383.529 481.39 385.12 481.639 386.618C482.27 390.426 482.659 393.221 482.844 395.446C483.246 400.267 483.067 404.295 482.383 409.886C482.32 410.405 482.251 410.947 482.167 411.596C482.135 411.848 482.112 412.024 482.056 412.453C482 412.883 482 412.883 481.944 413.314C481.155 419.379 480.85 422.836 480.85 427.472C480.85 437.072 484.193 448.955 488.316 454.163C488.406 454.276 488.463 454.413 488.479 454.557C489.26 461.338 487.667 461.324 486.958 454.952C482.659 449.358 479.293 437.291 479.293 427.472ZM504.855 362.055C504.149 366.842 503.44 371.63 502.775 376.098C502.745 376.298 502.745 376.298 502.716 376.497C501.236 386.435 500.201 393.264 499.806 395.638C499.317 398.567 499.101 400.121 498.976 401.681C498.837 403.421 498.817 404.688 498.817 409.494C498.817 410.901 498.831 411.514 498.942 415.578C499.239 426.478 503.436 446.953 502.189 454.437C502.118 454.861 501.717 455.147 501.293 455.077C500.869 455.006 500.842 454.939 500.889 454.437C501.553 447.318 497.68 426.426 497.386 415.62C497.274 411.537 497.26 410.922 497.26 409.494C497.26 404.642 497.281 403.355 497.425 401.557C497.554 399.943 497.775 398.351 498.271 395.382C498.664 393.021 499.698 386.193 501.176 376.268C501.206 376.068 501.206 376.068 501.235 375.869C501.9 371.401 502.609 366.614 503.316 361.828C503.563 360.152 503.792 358.597 503.998 357.201C504.112 356.423 504.112 356.423 504.188 355.904C504.244 355.525 504.244 355.525 504.256 355.446C504.383 354.581 505.618 354.549 505.789 355.406C505.809 355.505 505.847 355.698 505.904 355.978C505.999 356.446 506.11 356.988 506.235 357.599C506.594 359.346 507.001 361.291 507.448 363.387C508.725 369.374 510.065 375.361 511.406 380.948C512.219 384.337 513.008 387.477 513.765 390.317C515.693 397.551 516.519 402.183 516.784 406.954C516.924 409.476 516.924 411.037 516.84 416.883C516.802 419.573 516.785 421.363 516.785 423.477C516.785 423.907 516.436 424.255 516.006 424.255C515.577 424.255 515.228 423.907 515.228 423.477C515.228 421.354 515.245 419.558 515.284 416.861C515.367 411.056 515.367 409.511 515.23 407.04C514.971 402.387 514.163 397.857 512.261 390.718C511.5 387.864 510.708 384.712 509.892 381.311C508.548 375.71 507.205 369.711 505.926 363.712C505.652 362.429 505.394 361.203 505.152 360.043C505.056 360.692 504.957 361.363 504.855 362.055ZM531.327 455.856C531.288 455.566 531.414 455.278 531.654 455.111C532.694 454.389 533.308 453.409 533.308 452.443C533.308 451.287 533.56 447.758 534.308 437.654C534.409 436.236 534.501 434.925 534.585 433.672C535.052 426.752 535.304 421.709 535.304 418.483C535.304 415.357 534.978 413.541 533.18 405.291C531.177 396.101 530.54 390.654 531.318 384.427C533.375 367.956 532.742 350.571 530.438 333.991C529.978 330.677 531.516 330.438 531.98 333.777C534.301 350.481 534.939 367.995 532.862 384.62C532.112 390.624 532.733 395.931 534.7 404.959C536.529 413.351 536.861 415.194 536.861 418.483C536.861 421.755 536.608 426.823 536.138 433.777C536.053 435.032 535.962 436.345 535.86 437.765C535.112 447.888 534.864 451.351 534.864 452.443C534.864 453.825 534.132 455.125 532.935 456.096C533.109 457.225 531.508 457.188 531.327 455.856Z" fill="#1C3C55"/>
<path fill-rule="evenodd" clip-rule="evenodd" d="M492.395 286.996C490.738 290.733 479.884 321.229 479.884 321.229C478.957 327.367 491.986 331.538 505.054 331.538C519.956 331.538 527.904 324.512 527.904 324.512C527.904 324.512 526.477 320.105 526.91 311.786C527.441 301.593 529.909 290.806 530.456 288.595C531.449 284.58 536.533 285.992 539.514 286.996C542.495 287.999 548.768 284.361 544.496 278.382C540.224 272.403 526.91 262.277 526.91 262.277L513.995 275.327L507.354 263.945L498.327 266.561L492.395 262.277C487.353 265.776 487.419 262.811 482.634 272.954C483.739 275.46 494.051 283.258 492.395 286.996Z" fill="#89FCA3"/>
<path fill-rule="evenodd" clip-rule="evenodd" d="M492.673 287.83C491.017 291.567 479.884 321.229 479.884 321.229C478.957 327.367 491.986 331.538 505.054 331.538C519.956 331.538 526.789 324.512 527.904 324.512C529.02 324.512 527.471 323.659 527.904 315.34C528.435 305.148 529.766 291.465 530.314 289.254C531.306 285.239 536.298 286.826 539.278 287.83C542.259 288.833 548.768 284.361 544.496 278.382C540.224 272.403 526.91 262.277 526.91 262.277L513.995 275.327L507.517 263.825C503.444 265.868 500.593 266.971 498.963 267.135C497.449 267.287 495.352 265.667 492.673 262.277C487.631 265.776 487.348 263.068 482.563 273.212C482.563 273.212 494.329 284.092 492.673 287.83Z" stroke="black"/>
<path d="M488.049 457.717C488.341 460.31 491.316 465.765 491.316 465.765C491.316 465.765 484.993 472.915 483.399 474.721C481.805 476.528 485.372 476.486 487.204 475.95C489.036 475.415 498.709 471.402 498.709 468.592C498.709 465.782 501.525 458.295 501.525 453.588" stroke="#1C3C55"/>
<path d="M516.045 423.072C514.529 439.441 514.695 449.867 516.541 454.35C519.31 461.075 519.271 470.347 520.506 471.873C521.741 473.4 529.103 475.922 531.359 476.67C533.616 477.418 535.735 477.522 535.735 476.267C535.735 475.013 528.301 469.713 528.301 467.735C528.301 466.416 529.548 462.463 532.042 455.876" stroke="#1C3C55"/>
<path fill-rule="evenodd" clip-rule="evenodd" d="M112.037 262.441C113.089 264.348 121.088 274.009 129.833 271.686C138.578 269.363 148.811 251.866 153.4 245.127C160.478 234.732 166.871 215.827 169.479 222.987C172.087 230.148 166.833 238.441 165.335 242.261C163.954 245.782 158.007 256.484 151.033 265.919C143.334 276.336 134.862 285.375 131.964 282.224C129.99 280.078 130.832 285.374 132.728 293.066C136.14 306.904 142.967 328.497 142.967 328.497C142.967 328.497 98.7807 331.499 96.5715 329.498C94.3612 327.496 95.4664 297.471 92.1533 292.466C88.839 287.462 72.2687 305.477 73.3739 307.48C74.4778 309.481 91.0481 318.489 94.3612 322.492C97.6755 326.495 95.4664 328.497 93.2573 331.499C91.0481 334.502 88.839 335.503 88.839 332.5C88.839 329.498 93.2573 326.495 89.943 325.495C86.6298 324.493 65.6413 317.487 61.223 311.483C56.8036 305.477 74.4778 285.461 81.1064 279.455C87.7338 273.45 99.8858 268.446 100.99 264.443C102.094 260.439 99.8858 249.43 100.99 244.425C102.094 239.421 112.037 248.429 112.037 248.429C112.037 249.43 109.826 258.437 112.037 262.441Z" fill="white" stroke="#1C3C55"/>
<path fill-rule="evenodd" clip-rule="evenodd" d="M114.901 253.394C114.901 253.394 114.136 255.642 109.558 256.33C104.98 257.02 100.787 253.386 99.8368 248.198C98.8875 243.01 97.5556 235.746 104.234 233.675C110.911 231.605 115.484 237.313 116.624 243.539C117.764 249.764 114.901 253.394 114.901 253.394Z" fill="white" stroke="#1C3C55"/>
<path fill-rule="evenodd" clip-rule="evenodd" d="M97.6368 459.893C97.6368 459.893 96.581 468.837 97.6368 471.818C98.6926 474.799 92.1727 481.344 89.1861 482.749C84.9608 484.737 86.0166 482.749 88.1281 476.787C90.2419 470.824 93.4115 463.868 92.3557 457.906C91.2977 451.944 97.6368 459.893 97.6368 459.893Z" fill="white" stroke="#1C3C55"/>
<path fill-rule="evenodd" clip-rule="evenodd" d="M133.365 461.558C133.365 461.558 133.365 469.673 132.3 472.717C131.235 475.76 136.561 481.846 140.822 483.875C145.083 485.905 144.019 483.875 140.822 478.803C137.626 473.73 138.692 463.587 139.758 458.515C140.822 453.443 133.365 461.558 133.365 461.558Z" fill="white" stroke="#1C3C55"/>
<path fill-rule="evenodd" clip-rule="evenodd" d="M91.9238 392.786C93.6888 405.781 87.5551 417.898 87.5551 426.94C87.5551 435.979 89.74 458.079 89.74 461.092C89.74 464.106 94.4537 466.458 97.3838 465.111C101.751 463.102 107.211 447.03 107.211 431.962C107.211 416.894 106.119 413.881 110.486 398.812C114.855 383.745 119.223 363.655 119.223 363.655C119.223 363.655 124.683 397.808 125.775 403.835C126.866 409.863 126.866 410.867 126.866 417.898C126.866 424.93 125.775 436.984 127.958 449.039C130.143 461.092 126.866 466.116 133.419 466.116C139.97 466.116 146.521 449.039 146.521 435.979C146.521 422.921 143.245 415.889 144.338 403.835C145.43 391.782 146.523 364.394 144.338 350.331C142.155 336.267 143.214 329.151 141.578 326.821C139.943 324.49 95.1989 329.501 95.1989 329.501C95.1989 329.501 87.5551 360.642 91.9238 392.786Z" fill="white" stroke="#1C3C55"/>
<path fill-rule="evenodd" clip-rule="evenodd" d="M142.174 278.895C135.545 284.407 130.928 284.396 131.442 285.45C133.271 289.201 145.39 330.313 143.611 332.101C144.634 338.261 130.558 336.635 116.13 336.635C99.6762 336.635 95.6584 329.304 95.6584 329.304C95.6584 329.304 92.3684 299.081 91.2698 295.05C90.1735 291.021 89.0772 293.035 85.786 294.043C82.4948 295.05 72.6223 289.006 77.3389 283.005C82.0555 277.005 96.7559 266.841 96.7559 266.841L111.016 279.939L119.792 266.841C124.318 267.764 127.406 267.764 129.058 266.841C131.535 265.457 143.611 253.984 143.611 253.984C143.611 253.984 151.18 251.725 156.463 261.905C150.688 270.552 148.803 273.384 142.174 278.895Z" fill="#89FCA3" stroke="black"/>
<path fill-rule="evenodd" clip-rule="evenodd" d="M95.7634 243.862C96.0209 244.833 100.434 236.431 102.618 235.564C104.803 234.696 110.078 239.348 113.148 235.814C115.195 233.458 116.248 231.438 116.306 229.755C113.713 230.601 111.838 231.024 110.682 231.024C108.947 231.024 108.939 225.812 106.34 228.418C103.741 231.024 105.335 232.779 101.414 231.024C97.4927 229.269 95.506 242.892 95.7634 243.862Z" fill="white" stroke="#1C3C55"/>
</svg>
