<svg width="607" height="594" viewBox="0 0 607 594" fill="none" xmlns="http://www.w3.org/2000/svg">
<g opacity="0.2">
<path d="M462 500L517.534 280.331L113.5 192.5L289.596 301.189L418.931 123.912" stroke="#979797"/>
<path d="M284.322 301.792L274.014 513.499L514.685 278.474" stroke="#979797"/>
<path d="M284.162 315.129L141 391L273.5 513.5" stroke="#979797"/>
<path d="M290.328 302.981L279.38 124.731L418 124.731" stroke="#979797"/>
<path fill-rule="evenodd" clip-rule="evenodd" d="M142.585 390.654L47.1371 332.784L107.341 193.996L142.585 390.654Z" stroke="#979797"/>
<path d="M516.39 283.599L417.532 123.178L462.162 500.125L274 513L112 195L279.5 124.501L461.299 499.685" stroke="#979797"/>
<path d="M461 499L346.084 438.638L293.944 309.029" stroke="#979797"/>
<path d="M141 390.001L348.5 440" stroke="#979797"/>
</g>
<path d="M280.692 129.496C282.326 130.331 284.19 129.787 284.854 128.281C285.518 126.774 284.73 124.876 283.095 124.041C281.461 123.206 279.597 123.751 278.933 125.257C278.269 126.764 279.057 128.662 280.692 129.496Z" fill="#C4C4C4"/>
<path d="M277.601 136.51C283.44 139.492 290.095 137.548 292.466 132.168C294.837 126.788 292.025 120.01 286.187 117.028C280.348 114.046 273.692 115.99 271.321 121.37C268.951 126.75 271.762 133.528 277.601 136.51Z" stroke="#CACACA"/>
<path d="M459.663 501.868C461.298 502.703 463.161 502.159 463.825 500.653C464.489 499.146 463.702 497.248 462.067 496.413C460.432 495.578 458.568 496.123 457.904 497.629C457.241 499.135 458.028 501.033 459.663 501.868Z" fill="#C4C4C4"/>
<path d="M456.572 508.882C462.411 511.864 469.066 509.92 471.437 504.54C473.808 499.16 470.997 492.381 465.158 489.4C459.319 486.418 452.663 488.362 450.293 493.742C447.922 499.122 450.733 505.9 456.572 508.882Z" stroke="#CACACA"/>
<path d="M442.96 349.968C444.595 350.803 446.459 350.259 447.123 348.752C447.786 347.246 446.999 345.348 445.364 344.513C443.729 343.678 441.866 344.222 441.202 345.729C440.538 347.235 441.325 349.133 442.96 349.968Z" fill="#C4C4C4"/>
<path d="M439.572 356.883C445.411 359.865 452.066 357.921 454.437 352.541C456.808 347.161 453.997 340.383 448.158 337.401C442.319 334.419 435.663 336.363 433.293 341.743C430.922 347.123 433.733 353.901 439.572 356.883Z" stroke="#CACACA"/>
<path d="M139.96 392.968C141.595 393.803 143.459 393.259 144.123 391.753C144.786 390.246 143.999 388.348 142.364 387.513C140.729 386.678 138.866 387.223 138.202 388.729C137.538 390.235 138.325 392.133 139.96 392.968Z" fill="#C4C4C4"/>
<path d="M136.572 399.883C142.411 402.865 149.067 400.921 151.437 395.541C153.808 390.161 150.997 383.383 145.158 380.401C139.319 377.419 132.664 379.363 130.293 384.743C127.922 390.123 130.733 396.901 136.572 399.883Z" stroke="#CACACA"/>
<path d="M272.094 515.366C273.803 516.217 275.76 515.602 276.466 513.994C277.172 512.385 276.359 510.392 274.65 509.541C272.941 508.69 270.984 509.304 270.278 510.913C269.572 512.521 270.385 514.515 272.094 515.366Z" fill="#7B7B7B"/>
<path d="M417.094 128.367C418.803 129.218 420.76 128.604 421.466 126.995C422.172 125.386 421.359 123.393 419.65 122.542C417.941 121.691 415.984 122.305 415.278 123.914C414.572 125.523 415.385 127.516 417.094 128.367Z" fill="#7B7B7B"/>
<path d="M109.733 198.828C112.432 200.206 115.508 199.308 116.604 196.821C117.7 194.335 116.4 191.202 113.702 189.824C111.003 188.445 107.927 189.344 106.831 191.83C105.735 194.317 107.035 197.45 109.733 198.828Z" fill="#89FCA3"/>
<path d="M105.405 208.651C113.991 213.037 123.779 210.178 127.265 202.266C130.752 194.354 126.617 184.386 118.031 180C109.444 175.615 99.6567 178.474 96.1702 186.386C92.6836 194.297 96.8181 204.266 105.405 208.651Z" stroke="#89FCA3"/>
<path d="M46.8764 335.768C49.5751 337.146 52.6511 336.248 53.7469 333.761C54.8427 331.275 53.5433 328.142 50.8446 326.763C48.1459 325.385 45.07 326.284 43.9742 328.77C42.8784 331.257 44.1778 334.39 46.8764 335.768Z" fill="#89FCA3"/>
<path d="M42.5475 345.591C51.1342 349.976 60.9214 347.117 64.408 339.206C67.8945 331.294 63.7601 321.325 55.1735 316.94C46.5868 312.555 36.7996 315.414 33.313 323.325C29.8264 331.237 33.9609 341.206 42.5475 345.591Z" stroke="#89FCA3"/>
<path d="M512.876 286.768C515.575 288.146 518.651 287.248 519.747 284.761C520.843 282.275 519.543 279.142 516.845 277.764C514.146 276.385 511.07 277.284 509.974 279.77C508.878 282.257 510.178 285.39 512.876 286.768Z" fill="#89FCA3"/>
<path d="M508.548 296.591C517.134 300.977 526.921 298.118 530.408 290.206C533.895 282.294 529.76 272.326 521.173 267.94C512.587 263.555 502.8 266.414 499.313 274.326C495.826 282.238 499.961 292.206 508.548 296.591Z" stroke="#89FCA3"/>
<path fill-rule="evenodd" clip-rule="evenodd" d="M358.194 232.428C356.256 236.406 344.626 240.383 335.904 251.322C332.133 256.05 330.335 264.91 330.511 277.901C315.367 291.198 307.479 298.912 306.849 301.042C305.833 304.473 310.196 307.969 310.196 304.987C310.196 301.399 331.058 290.739 334.378 281.155C338.494 269.269 338.182 267.169 340.197 264.688C345.043 258.722 331.704 299.054 331.704 299.054C331.704 299.054 369.825 301.042 371.763 299.054C373.702 297.065 371.429 264.527 376.523 260.415C381.617 256.303 393.085 275.187 392.116 277.177C391.147 279.166 376.609 288.115 373.702 292.093C370.794 296.07 371.764 296.78 373.702 299.762C375.64 302.746 378.441 302.037 378.441 299.054C378.441 296.07 374.671 296.07 377.579 295.076C380.485 294.082 398.9 287.121 402.776 281.155C406.654 275.187 391.147 255.3 385.331 249.333C379.517 243.366 368.855 238.394 367.886 234.417C366.918 230.438 368.855 219.5 367.886 214.528C366.918 209.556 358.194 218.506 358.194 218.506C358.194 219.5 360.134 228.45 358.194 232.428Z" fill="white" stroke="#1C3C55"/>
<path fill-rule="evenodd" clip-rule="evenodd" d="M358.327 233.261C356.205 233.261 345.324 239.118 336.582 250.082C332.802 254.821 330.2 263.716 328.774 276.768L315.968 289.983L322.686 294.56C330.182 288.462 334.468 283.861 335.543 280.755C339.67 268.843 339.806 266.912 341.376 264.252C344.369 259.178 331.5 297.636 331.5 297.636C331.5 297.636 371.072 300.687 373.015 298.693C374.958 296.7 373.987 266.802 376.9 261.819C379.559 257.272 390.633 271.987 392.042 276.084C392.132 276.347 387.939 279.705 379.462 286.16L384.843 292.386C395.867 287.423 402.286 283.546 404.099 280.755C407.986 274.774 392.443 254.842 386.614 248.862C380.786 242.883 374.335 237.483 370.065 235.189C365.794 232.895 363.586 244.095 361.501 241.758C359.415 239.422 360.449 233.261 358.327 233.261Z" fill="#89FCA3" stroke="black"/>
<path fill-rule="evenodd" clip-rule="evenodd" d="M358.885 227.139C358.885 227.139 359.944 229.214 364.183 229.214C368.422 229.214 371.601 225.065 371.601 219.878C371.601 214.691 371.601 207.43 365.243 206.393C358.885 205.355 355.706 211.579 355.706 217.803C355.706 224.027 358.885 227.139 358.885 227.139Z" fill="white" stroke="#1C3C55"/>
<path fill-rule="evenodd" clip-rule="evenodd" d="M364.242 207.608C363.761 207.514 366.103 210.088 363.753 210.088C361.403 210.088 357.879 210.088 356.704 213.808C355.529 217.528 357.691 217.924 356.516 217.924C355.342 217.924 356.401 221.041 356.401 221.041L356.799 225.166C356.799 225.166 354.258 221.539 353.18 215.444C351.846 207.906 361.717 198.528 363.691 203.738C364.851 206.797 371.401 207.113 372.575 212.073C373.751 217.034 371.588 222.493 371.588 222.493C371.588 222.493 371.122 219.565 370.601 218.325C370.601 218.325 369.614 217.481 369.614 216.241C369.614 215.001 370.605 208.848 364.242 207.608Z" fill="white" stroke="#1C3C55"/>
<path fill-rule="evenodd" clip-rule="evenodd" d="M371.706 427.57C371.706 427.57 372.682 436.25 371.706 439.142C370.731 442.036 376.754 448.386 379.513 449.749C383.417 451.679 382.441 449.749 380.491 443.964C378.538 438.178 375.61 431.427 376.585 425.642C377.563 419.856 371.706 427.57 371.706 427.57Z" fill="white" stroke="#1C3C55"/>
<path fill-rule="evenodd" clip-rule="evenodd" d="M340.024 428.062C340.024 428.062 340.024 435.937 341.008 438.89C341.992 441.844 337.071 447.75 333.135 449.718C329.198 451.688 330.182 449.718 333.135 444.796C336.088 439.874 335.103 430.031 334.118 425.109C333.135 420.186 340.024 428.062 340.024 428.062Z" fill="white" stroke="#1C3C55"/>
<path fill-rule="evenodd" clip-rule="evenodd" d="M375.737 361.543C374.197 374.434 379.548 386.454 379.548 395.423C379.548 404.389 377.642 426.311 377.642 429.3C377.642 432.29 373.53 434.623 370.973 433.286C367.163 431.294 362.4 415.351 362.4 400.404C362.4 385.458 363.353 382.468 359.542 367.521C355.731 352.575 351.921 332.647 351.921 332.647C351.921 332.647 347.157 366.525 346.204 372.504C345.252 378.483 345.252 379.479 345.252 386.454C345.252 393.429 346.204 405.386 344.3 417.344C342.394 429.3 345.252 434.283 339.536 434.283C333.82 434.283 328.105 417.344 328.105 404.389C328.105 391.436 330.963 384.461 330.01 372.504C329.057 360.547 323.743 334.092 325.649 320.142C327.553 306.192 330.5 299.751 331.927 297.44C333.354 295.128 372.879 298.767 372.879 298.767C372.879 298.767 379.548 329.657 375.737 361.543Z" fill="white" stroke="#1C3C55"/>
<path d="M164.964 318.257H312.223V361.672H322.591V412.697C322.591 425.364 312.509 435.633 300.073 435.633H192.781C177.418 435.633 164.964 422.948 164.964 407.301V318.257Z" fill="white"/>
<path fill-rule="evenodd" clip-rule="evenodd" d="M165.627 318.932V407.301C165.627 422.575 177.784 434.958 192.781 434.958H300.073C312.143 434.958 321.929 424.992 321.929 412.697V362.347H311.561V318.932H165.627Z" stroke="#1C3C55"/>
<path d="M207.351 264.292H285.673V290.661H313.318V393.809H207.351V264.292Z" fill="white"/>
<path fill-rule="evenodd" clip-rule="evenodd" d="M208.013 264.966V393.135H312.656V291.336H285.01V264.966H208.013Z" stroke="#1C3C55"/>
<path d="M216.623 292.624H268.945" stroke="#1C3C55" stroke-linecap="round" stroke-linejoin="round"/>
<path d="M216.623 281.831H260.896" stroke="#1C3C55" stroke-linecap="round" stroke-linejoin="round"/>
<path d="M299.41 303.417H216.623" stroke="#1C3C55" stroke-linecap="round" stroke-linejoin="round"/>
<path d="M277.343 315.559H216.945" stroke="#1C3C55" stroke-linecap="round" stroke-linejoin="round"/>
<path d="M301.491 326.352H255.036" stroke="#1C3C55" stroke-linecap="round" stroke-linejoin="round"/>
<path d="M157.017 339.844H281.951C281.491 377.643 281.491 402.54 281.951 414.533C282.353 425 289.143 431.689 302.323 434.6C303.604 434.883 303.386 435.227 301.669 435.633H179.535C167.098 435.633 157.017 425.364 157.017 412.697V339.844Z" fill="white"/>
<path fill-rule="evenodd" clip-rule="evenodd" d="M157.679 340.518V412.697C157.679 424.991 167.464 434.958 179.535 434.958H300.894C288.282 431.835 281.691 425.016 281.29 414.559C280.832 402.623 280.829 377.947 281.281 340.518H157.679ZM301.592 434.958H301.669L301.519 434.975C301.544 434.97 301.568 434.964 301.592 434.958Z" stroke="#1C3C55"/>
<path d="M264.971 359.406H172.25V401.23H264.971V359.406Z" stroke="black"/>
</svg>
