<svg width="600" height="600" viewBox="0 0 600 600" fill="none" xmlns="http://www.w3.org/2000/svg">
<g opacity="0.7">
<g opacity="0.2">
<path d="M479.015 492.319L522.537 253.122L123.286 208.787L303.221 313.286L421.465 99.2654" stroke="#979797"/>
<path d="M301.319 536.895L521.692 252.791" stroke="#979797"/>
<path fill-rule="evenodd" clip-rule="evenodd" d="M302.69 313.079L161.776 409.122L300.475 536.564L302.69 313.079Z" stroke="#979797"/>
<path d="M302.376 312.955L286.235 128.585L424.306 99.3501" stroke="#979797"/>
<path fill-rule="evenodd" clip-rule="evenodd" d="M163.158 410.693L70.465 365.094L122.979 209.696L163.158 410.693Z" stroke="#979797"/>
<path d="M521.692 252.791L420.812 96.9511L477.556 493.805L301.857 538.135L122.979 209.696L286.542 127.676L476.711 493.474" stroke="#979797"/>
<path d="M479.245 494.467L367.738 450.755L303.956 313.44" stroke="#979797"/>
<path d="M161.469 410.031L371.117 452.08" stroke="#979797"/>
</g>
<path d="M284.13 130.858C285.731 131.485 287.501 130.596 288.084 128.871C288.667 127.147 287.841 125.24 286.24 124.612C284.639 123.984 282.868 124.874 282.286 126.598C281.703 128.323 282.528 130.23 284.13 130.858Z" fill="#C4C4C4"/>
<path d="M281.416 138.887C287.135 141.129 293.458 137.953 295.54 131.794C297.621 125.635 294.672 118.824 288.954 116.582C283.235 114.341 276.912 117.516 274.83 123.676C272.749 129.835 275.697 136.645 281.416 138.887Z" stroke="#CACACA"/>
<path d="M477.078 494.755C478.68 495.383 480.45 494.494 481.033 492.769C481.616 491.044 480.79 489.137 479.189 488.51C477.588 487.882 475.817 488.771 475.234 490.496C474.651 492.22 475.477 494.127 477.078 494.755Z" fill="#C4C4C4"/>
<path d="M474.365 502.785C480.084 505.027 486.407 501.851 488.488 495.692C490.57 489.532 487.621 482.722 481.902 480.48C476.184 478.238 469.861 481.414 467.779 487.573C465.698 493.733 468.646 500.543 474.365 502.785Z" stroke="#CACACA"/>
<path d="M452.643 342.533C454.245 343.16 456.015 342.271 456.598 340.546C457.181 338.822 456.355 336.915 454.754 336.287C453.153 335.659 451.382 336.549 450.799 338.273C450.216 339.998 451.042 341.905 452.643 342.533Z" fill="#C4C4C4"/>
<path d="M449.93 350.562C455.649 352.804 461.972 349.628 464.053 343.469C466.135 337.31 463.186 330.499 457.467 328.257C451.749 326.016 445.425 329.191 443.344 335.351C441.263 341.51 444.211 348.321 449.93 350.562Z" stroke="#CACACA"/>
<path d="M160.116 412.105C161.717 412.733 163.487 411.844 164.07 410.119C164.653 408.395 163.827 406.488 162.226 405.86C160.625 405.232 158.854 406.121 158.272 407.846C157.689 409.571 158.514 411.478 160.116 412.105Z" fill="#C4C4C4"/>
<path d="M157.402 420.135C163.121 422.377 169.444 419.201 171.526 413.042C173.607 406.882 170.659 400.072 164.94 397.83C159.221 395.588 152.898 398.764 150.816 404.923C148.735 411.083 151.684 417.893 157.402 420.135Z" stroke="#CACACA"/>
<path d="M299.138 539.59C300.82 540.249 302.68 539.315 303.292 537.504C303.905 535.692 303.037 533.689 301.355 533.03C299.673 532.37 297.814 533.304 297.201 535.116C296.589 536.928 297.456 538.931 299.138 539.59Z" fill="#7B7B7B"/>
<path d="M419.318 102.309C421 102.968 422.86 102.034 423.472 100.223C424.084 98.411 423.217 96.4079 421.535 95.7486C419.853 95.0892 417.993 96.0233 417.381 97.8348C416.769 99.6464 417.636 101.649 419.318 102.309Z" fill="#7B7B7B"/>
<path d="M121.826 215.149C124.47 216.185 127.392 214.717 128.354 211.87C129.316 209.023 127.953 205.876 125.31 204.84C122.667 203.803 119.745 205.271 118.783 208.118C117.821 210.965 119.183 214.112 121.826 215.149Z" fill="#89FCA3"/>
<path d="M118.026 226.395C126.436 229.692 135.735 225.021 138.796 215.963C141.857 206.906 137.521 196.89 129.111 193.593C120.701 190.297 111.402 194.967 108.341 204.025C105.28 213.083 109.616 223.098 118.026 226.395Z" stroke="#89FCA3"/>
<path d="M69.5068 369.971C72.1499 371.007 75.0725 369.539 76.0345 366.693C76.9965 363.846 75.6337 360.698 72.9906 359.662C70.3475 358.626 67.425 360.094 66.463 362.941C65.501 365.787 66.8637 368.935 69.5068 369.971Z" fill="#89FCA3"/>
<path d="M65.7065 381.217C74.1163 384.514 83.4153 379.844 86.4762 370.786C89.5371 361.728 85.201 351.713 76.7911 348.416C68.3813 345.119 59.0823 349.789 56.0214 358.847C52.9605 367.905 57.2966 377.921 65.7065 381.217Z" stroke="#89FCA3"/>
<path d="M518.102 259.054C520.745 260.09 523.667 258.622 524.629 255.776C525.591 252.929 524.229 249.781 521.586 248.745C518.942 247.709 516.02 249.177 515.058 252.024C514.096 254.87 515.459 258.018 518.102 259.054Z" fill="#89FCA3"/>
<path d="M514.301 270.3C522.711 273.597 532.01 268.927 535.071 259.869C538.132 250.811 533.796 240.796 525.386 237.499C516.976 234.202 507.677 238.872 504.616 247.93C501.555 256.988 505.892 267.004 514.301 270.3Z" stroke="#89FCA3"/>
</g>
<path fill-rule="evenodd" clip-rule="evenodd" d="M251.874 54.4213C251.874 55.3663 248.395 61.0363 252.744 66.7064C257.093 72.3764 259.122 69.6793 264.922 80.8814C272.75 96.0015 278.839 109.232 285.798 117.737C292.757 126.242 296.236 130.022 295.366 134.747C294.496 139.472 293.627 139.472 292.757 137.582C291.887 135.692 292.757 132.857 290.147 130.967C287.538 129.077 278.839 120.572 278.839 120.572C278.839 120.572 266.661 108.287 264.052 104.506C261.442 100.726 262.312 106.396 263.182 109.232C264.052 112.067 271.88 146.087 271.011 163.097C270.141 180.107 270.141 185.777 271.011 198.062C271.88 210.347 271.88 239.642 275.36 247.202C278.839 254.762 283.188 256.652 282.319 257.597C281.449 258.542 269.271 253.817 269.271 250.982C269.271 248.147 271.011 248.147 269.271 244.367C267.531 240.587 257.093 211.292 257.093 201.842C257.093 192.392 251.874 164.042 251.874 164.042C251.874 164.042 248.395 152.702 247.525 151.757C246.655 150.812 244.915 184.832 242.306 197.117C240.566 211.292 243.176 210.347 239.696 227.357C236.217 244.367 236.217 247.202 237.087 250.037C237.956 252.872 237.956 253.817 234.477 255.707C230.998 257.597 225.779 259.487 226.649 256.652C227.518 253.817 231.868 250.982 231.868 248.147C231.868 245.312 229.258 211.292 228.388 204.677C227.518 198.062 225.779 184.832 225.779 176.327V150.812C225.779 146.087 232.737 113.957 233.607 108.287C234.477 102.616 234.477 99.7815 233.607 101.671C232.737 103.561 230.128 120.572 227.518 128.132C224.909 135.692 221.429 144.197 221.429 148.922C221.429 153.647 223.169 153.647 223.169 156.482C223.169 159.317 220.56 157.427 218.82 154.592C217.08 151.757 216.21 149.867 217.08 144.197C217.95 138.527 221.429 115.847 223.169 109.232C224.909 102.616 230.128 80.8814 232.737 77.1014C235.347 73.3214 241.436 70.4864 243.176 67.6514C244.915 64.8164 244.915 54.4213 244.915 54.4213H251.874Z" fill="white"/>
<path fill-rule="evenodd" clip-rule="evenodd" d="M251.874 54.4213C251.874 55.3663 248.395 61.0363 252.744 66.7064C257.093 72.3764 259.122 69.6793 264.922 80.8814C272.75 96.0015 278.839 109.232 285.798 117.737C292.757 126.242 296.236 130.022 295.366 134.747C294.496 139.472 293.627 139.472 292.757 137.582C291.887 135.692 292.757 132.857 290.147 130.967C287.538 129.077 278.839 120.572 278.839 120.572C278.839 120.572 266.661 108.287 264.052 104.506C261.442 100.726 262.312 106.396 263.182 109.232C264.052 112.067 271.88 146.087 271.011 163.097C270.141 180.107 270.141 185.777 271.011 198.062C271.88 210.347 271.88 239.642 275.36 247.202C278.839 254.762 283.188 256.652 282.319 257.597C281.449 258.542 269.271 253.817 269.271 250.982C269.271 248.147 271.011 248.147 269.271 244.367C267.531 240.587 257.093 211.292 257.093 201.842C257.093 192.392 251.874 164.042 251.874 164.042C251.874 164.042 248.395 152.702 247.525 151.757C246.655 150.812 244.915 184.832 242.306 197.117C240.566 211.292 243.176 210.347 239.696 227.357C236.217 244.367 236.217 247.202 237.087 250.037C237.956 252.872 237.956 253.817 234.477 255.707C230.998 257.597 225.779 259.487 226.649 256.652C227.518 253.817 231.868 250.982 231.868 248.147C231.868 245.312 229.258 211.292 228.388 204.677C227.518 198.062 225.779 184.832 225.779 176.327V150.812C225.779 146.087 232.737 113.957 233.607 108.287C234.477 102.616 234.477 99.7815 233.607 101.671C232.737 103.561 230.128 120.572 227.518 128.132C224.909 135.692 221.429 144.197 221.429 148.922C221.429 153.647 223.169 153.647 223.169 156.482C223.169 159.317 220.56 157.427 218.82 154.592C217.08 151.757 216.21 149.867 217.08 144.197C217.95 138.527 221.429 115.847 223.169 109.232C224.909 102.616 230.128 80.8814 232.737 77.1014C235.347 73.3214 241.436 70.4864 243.176 67.6514C244.915 64.8164 244.915 54.4213 244.915 54.4213H251.874Z" stroke="#1C3C55" stroke-width="0.8"/>
<path fill-rule="evenodd" clip-rule="evenodd" d="M252.638 56.3895C252.638 56.3895 251.784 58.3382 248.365 58.3382C244.946 58.3382 242.381 54.4408 242.381 49.569C242.381 44.6973 242.381 37.8768 247.51 36.9025C252.638 35.9281 255.203 41.7742 255.203 47.6203C255.203 53.4664 252.638 56.3895 252.638 56.3895Z" fill="white"/>
<path fill-rule="evenodd" clip-rule="evenodd" d="M252.638 56.3895C252.638 56.3895 251.784 58.3382 248.365 58.3382C244.946 58.3382 242.381 54.4408 242.381 49.569C242.381 44.6973 242.381 37.8768 247.51 36.9025C252.638 35.9281 255.203 41.7742 255.203 47.6203C255.203 53.4664 252.638 56.3895 252.638 56.3895Z" stroke="#1C3C55" stroke-width="0.8"/>
<path fill-rule="evenodd" clip-rule="evenodd" d="M254.724 68.1304C254.724 68.1304 252.967 77.6135 247.699 78.5618C242.43 79.5101 240.631 68.724 239.775 68.9013C238.918 69.0787 237.151 70.8729 237.151 70.8729C237.151 70.8729 237.649 88.2601 237.162 90.8898C236.283 95.6313 232.771 100.373 232.771 100.373C232.771 100.373 233.279 102.516 232.147 110.453C231.015 118.391 222.234 146.84 222.234 158.22C222.234 162.013 239.796 164.858 251.211 163.909C260.157 163.166 270.183 158.928 274.101 157.13C275.071 156.684 275.569 155.525 275.258 154.437C273.446 148.1 267.617 127.619 266.139 121.236C266.139 121.236 262.041 105.747 262.334 102.111C262.626 98.4762 258.236 96.5796 257.358 88.0448C256.48 79.5101 258.236 70.027 258.236 70.027L254.724 68.1304Z" fill="#89FCA3" stroke="black" stroke-width="0.8"/>
<path fill-rule="evenodd" clip-rule="evenodd" d="M231.519 52.9483C232.266 45.653 236.452 42.8551 237.297 42.8426C238.142 42.8292 236.376 33.1448 242.683 32.8947C244.86 32.8081 246.048 33.0822 246.688 33.4737C246.89 33.5074 247.09 33.542 247.311 33.5814C256.627 35.2569 257.618 46.1676 256.81 48.9116C256.002 51.6557 254.3 50.7718 254.3 50.7718C254.3 50.7718 255.929 46.1945 252.525 44.4258C249.735 42.9763 246.907 38.4712 245.971 36.3928C244.558 37.746 242.332 40.2756 242.365 42.7638C242.414 46.4052 241.338 53.1157 241.484 52.0423C241.63 50.9689 239.023 45.5472 239.023 45.5472C239.023 45.5472 238.142 42.8292 239.084 50.0985C240.027 57.3678 240.1 62.8299 236.758 65.6134C233.416 68.3969 230.772 60.2436 231.519 52.9483Z" fill="white"/>
<path fill-rule="evenodd" clip-rule="evenodd" d="M231.519 52.9483C232.266 45.653 236.452 42.8551 237.297 42.8426C238.142 42.8292 236.376 33.1448 242.683 32.8947C244.86 32.8081 246.048 33.0822 246.688 33.4737C246.89 33.5074 247.09 33.542 247.311 33.5814C256.627 35.2569 257.618 46.1676 256.81 48.9116C256.002 51.6557 254.3 50.7718 254.3 50.7718C254.3 50.7718 255.929 46.1945 252.525 44.4258C249.735 42.9763 246.907 38.4712 245.971 36.3928C244.558 37.746 242.332 40.2756 242.365 42.7638C242.414 46.4052 241.338 53.1157 241.484 52.0423C241.63 50.9689 239.023 45.5472 239.023 45.5472C239.023 45.5472 238.142 42.8292 239.084 50.0985C240.027 57.3678 240.1 62.8299 236.758 65.6134C233.416 68.3969 230.772 60.2436 231.519 52.9483Z" stroke="#1C3C55" stroke-width="0.8"/>
<path d="M99.4968 318.165H137.6" stroke="#979797"/>
<path fill-rule="evenodd" clip-rule="evenodd" d="M125.456 327.088L124.288 328.224L114.781 318.659L124.288 309.094L125.456 310.23L117.116 318.659L125.456 327.088Z" fill="#89FCA3"/>
<path d="M239.785 316.206H277.888" stroke="#979797"/>
<path fill-rule="evenodd" clip-rule="evenodd" d="M265.743 325.129L264.576 326.265L255.069 316.7L264.576 307.135L265.743 308.271L257.404 316.7L265.743 325.129Z" fill="#89FCA3"/>
<path d="M378.25 400.447H416.353" stroke="#979797"/>
<path fill-rule="evenodd" clip-rule="evenodd" d="M404.209 409.37L403.042 410.506L393.535 400.941L403.042 391.376L404.209 392.512L395.87 400.941L404.209 409.37Z" fill="#89FCA3"/>
<path d="M327.273 300.169V166.95" stroke="#979797"/>
<path fill-rule="evenodd" clip-rule="evenodd" d="M335.707 272L336.761 273.257L327.881 283.497L319 273.257L320.055 272L327.881 280.982L335.707 272Z" fill="#89FCA3"/>
<path d="M467.084 421.926V462.964" stroke="#979797"/>
<path fill-rule="evenodd" clip-rule="evenodd" d="M458.8 449.884L457.745 448.627L466.626 438.388L475.507 448.627L474.452 449.884L466.626 440.902L458.8 449.884Z" fill="#89FCA3"/>
<path d="M237.963 339.715L277.843 380.601" stroke="#979797"/>
<path fill-rule="evenodd" clip-rule="evenodd" d="M252.341 364.091L250.77 364.182L248.971 350.305L261.948 349.315L262.191 350.989L250.785 351.888L252.341 364.091Z" fill="#89FCA3"/>
<path d="M102.028 297.339H0V340.439H102.028V297.339Z" fill="white"/>
<path d="M101.264 298.161H0.763184V339.617H101.264V298.161Z" stroke="#1C3C55"/>
<path fill-rule="evenodd" clip-rule="evenodd" d="M15.6528 313.21V325.092H14.3636V314.758L11.5174 316.775L10.9314 315.731L14.4473 313.21H15.6528ZM23.1868 313.012C24.1021 313.012 24.8443 313.198 25.4136 313.57C26.619 314.338 27.2218 316.259 27.2218 319.331C27.2218 321.504 26.8869 323.037 26.2172 323.931C25.5475 324.825 24.543 325.272 23.2036 325.272C21.8642 325.272 20.8569 324.831 20.1816 323.949C19.5063 323.067 19.1687 321.495 19.1687 319.232C19.1687 316.97 19.5007 315.368 20.1648 314.425C20.829 313.483 21.8363 313.012 23.1868 313.012ZM23.2036 314.254C22.5674 314.254 22.0651 314.398 21.6968 314.686C20.9043 315.275 20.5081 316.829 20.5081 319.349C20.5081 321.126 20.7257 322.353 21.161 323.031C21.5963 323.709 22.2772 324.048 23.2036 324.048C24.13 324.048 24.8109 323.706 25.2462 323.022C25.6815 322.338 25.8991 321.069 25.8991 319.214C25.8991 317.36 25.6898 316.07 25.2713 315.344C24.8527 314.617 24.1635 314.254 23.2036 314.254ZM34.4043 313.21V325.092H33.1151V314.758L30.2689 316.775L29.6829 315.731L33.1988 313.21H34.4043ZM41.9383 313.012C42.8536 313.012 43.5958 313.198 44.1651 313.57C45.3705 314.338 45.9733 316.259 45.9733 319.331C45.9733 321.504 45.6384 323.037 44.9687 323.931C44.299 324.825 43.2945 325.272 41.9551 325.272C40.6157 325.272 39.6084 324.831 38.9331 323.949C38.2578 323.067 37.9202 321.495 37.9202 319.232C37.9202 316.97 38.2522 315.368 38.9163 314.425C39.5805 313.483 40.5878 313.012 41.9383 313.012ZM41.9551 314.254C41.3189 314.254 40.8166 314.398 40.4483 314.686C39.6558 315.275 39.2596 316.829 39.2596 319.349C39.2596 321.126 39.4772 322.353 39.9125 323.031C40.3478 323.709 41.0287 324.048 41.9551 324.048C42.8815 324.048 43.5624 323.706 43.9977 323.022C44.433 322.338 44.6506 321.069 44.6506 319.214C44.6506 317.36 44.4413 316.07 44.0228 315.344C43.6042 314.617 42.915 314.254 41.9551 314.254ZM53.1558 313.21V325.092H51.8666V314.758L49.0204 316.775L48.4344 315.731L51.9503 313.21H53.1558ZM60.6898 313.012C61.6051 313.012 62.3473 313.198 62.9166 313.57C64.122 314.338 64.7248 316.259 64.7248 319.331C64.7248 321.504 64.3899 323.037 63.7202 323.931C63.0505 324.825 62.046 325.272 60.7066 325.272C59.3672 325.272 58.3599 324.831 57.6846 323.949C57.0093 323.067 56.6717 321.495 56.6717 319.232C56.6717 316.97 57.0037 315.368 57.6678 314.425C58.332 313.483 59.3393 313.012 60.6898 313.012ZM60.7066 314.254C60.0704 314.254 59.5681 314.398 59.1998 314.686C58.4073 315.275 58.0111 316.829 58.0111 319.349C58.0111 321.126 58.2287 322.353 58.664 323.031C59.0993 323.709 59.7802 324.048 60.7066 324.048C61.633 324.048 62.3139 323.706 62.7492 323.022C63.1845 322.338 63.4021 321.069 63.4021 319.214C63.4021 317.36 63.1928 316.07 62.7743 315.344C62.3557 314.617 61.6665 314.254 60.7066 314.254ZM71.9073 313.21V325.092H70.6181V314.758L67.7719 316.775L67.1859 315.731L70.7018 313.21H71.9073ZM79.4413 313.012C80.3566 313.012 81.0988 313.198 81.6681 313.57C82.8735 314.338 83.4763 316.259 83.4763 319.331C83.4763 321.504 83.1414 323.037 82.4717 323.931C81.802 324.825 80.7975 325.272 79.4581 325.272C78.1187 325.272 77.1114 324.831 76.4361 323.949C75.7608 323.067 75.4232 321.495 75.4232 319.232C75.4232 316.97 75.7552 315.368 76.4193 314.425C77.0835 313.483 78.0908 313.012 79.4413 313.012ZM79.4581 314.254C78.8219 314.254 78.3196 314.398 77.9513 314.686C77.1588 315.275 76.7626 316.829 76.7626 319.349C76.7626 321.126 76.9802 322.353 77.4155 323.031C77.8508 323.709 78.5317 324.048 79.4581 324.048C80.3845 324.048 81.0654 323.706 81.5007 323.022C81.936 322.338 82.1536 321.069 82.1536 319.214C82.1536 317.36 81.9443 316.07 81.5258 315.344C81.1072 314.617 80.418 314.254 79.4581 314.254ZM90.6588 313.21V325.092H89.3696V314.758L86.5234 316.775L85.9374 315.731L89.4533 313.21H90.6588Z" fill="#1C3C55"/>
<path d="M240.493 297.339H138.466V340.439H240.493V297.339Z" fill="white"/>
<path d="M239.73 298.161H139.229V339.617H239.73V298.161Z" stroke="#1C3C55"/>
<path fill-rule="evenodd" clip-rule="evenodd" d="M154.119 313.21V325.092H152.829V314.758L149.983 316.775L149.397 315.731L152.913 313.21H154.119ZM161.653 313.012C162.568 313.012 163.31 313.198 163.879 313.57C165.085 314.338 165.688 316.259 165.688 319.331C165.688 321.504 165.353 323.037 164.683 323.931C164.013 324.825 163.009 325.272 161.669 325.272C160.33 325.272 159.323 324.831 158.647 323.949C157.972 323.067 157.634 321.495 157.634 319.232C157.634 316.97 157.967 315.368 158.631 314.425C159.295 313.483 160.302 313.012 161.653 313.012ZM161.669 314.254C161.033 314.254 160.531 314.398 160.163 314.686C159.37 315.275 158.974 316.829 158.974 319.349C158.974 321.126 159.192 322.353 159.627 323.031C160.062 323.709 160.743 324.048 161.669 324.048C162.596 324.048 163.277 323.706 163.712 323.022C164.147 322.338 164.365 321.069 164.365 319.214C164.365 317.36 164.156 316.07 163.737 315.344C163.319 314.617 162.629 314.254 161.669 314.254ZM172.87 313.21V325.092H171.581V314.758L168.735 316.775L168.149 315.731L171.665 313.21H172.87ZM180.404 313.012C181.319 313.012 182.062 313.198 182.631 313.57C183.836 314.338 184.439 316.259 184.439 319.331C184.439 321.504 184.104 323.037 183.435 323.931C182.765 324.825 181.76 325.272 180.421 325.272C179.082 325.272 178.074 324.831 177.399 323.949C176.724 323.067 176.386 321.495 176.386 319.232C176.386 316.97 176.718 315.368 177.382 314.425C178.046 313.483 179.054 313.012 180.404 313.012ZM180.421 314.254C179.785 314.254 179.282 314.398 178.914 314.686C178.122 315.275 177.725 316.829 177.725 319.349C177.725 321.126 177.943 322.353 178.378 323.031C178.814 323.709 179.494 324.048 180.421 324.048C181.347 324.048 182.028 323.706 182.463 323.022C182.899 322.338 183.116 321.069 183.116 319.214C183.116 317.36 182.907 316.07 182.489 315.344C182.07 314.617 181.381 314.254 180.421 314.254ZM191.622 313.21V325.092H190.332V314.758L187.486 316.775L186.9 315.731L190.416 313.21H191.622ZM199.156 313.012C200.071 313.012 200.813 313.198 201.382 313.57C202.588 314.338 203.191 316.259 203.191 319.331C203.191 321.504 202.856 323.037 202.186 323.931C201.516 324.825 200.512 325.272 199.172 325.272C197.833 325.272 196.826 324.831 196.15 323.949C195.475 323.067 195.137 321.495 195.137 319.232C195.137 316.97 195.47 315.368 196.134 314.425C196.798 313.483 197.805 313.012 199.156 313.012ZM199.172 314.254C198.536 314.254 198.034 314.398 197.666 314.686C196.873 315.275 196.477 316.829 196.477 319.349C196.477 321.126 196.695 322.353 197.13 323.031C197.565 323.709 198.246 324.048 199.172 324.048C200.099 324.048 200.78 323.706 201.215 323.022C201.65 322.338 201.868 321.069 201.868 319.214C201.868 317.36 201.659 316.07 201.24 315.344C200.822 314.617 200.132 314.254 199.172 314.254ZM210.373 313.21V325.092H209.084V314.758L206.238 316.775L205.652 315.731L209.168 313.21H210.373ZM217.907 313.012C218.822 313.012 219.565 313.198 220.134 313.57C221.339 314.338 221.942 316.259 221.942 319.331C221.942 321.504 221.607 323.037 220.938 323.931C220.268 324.825 219.263 325.272 217.924 325.272C216.585 325.272 215.577 324.831 214.902 323.949C214.227 323.067 213.889 321.495 213.889 319.232C213.889 316.97 214.221 315.368 214.885 314.425C215.549 313.483 216.557 313.012 217.907 313.012ZM217.924 314.254C217.288 314.254 216.785 314.398 216.417 314.686C215.625 315.275 215.228 316.829 215.228 319.349C215.228 321.126 215.446 322.353 215.881 323.031C216.317 323.709 216.997 324.048 217.924 324.048C218.85 324.048 219.531 323.706 219.966 323.022C220.402 322.338 220.619 321.069 220.619 319.214C220.619 317.36 220.41 316.07 219.992 315.344C219.573 314.617 218.884 314.254 217.924 314.254ZM229.125 313.21V325.092H227.835V314.758L224.989 316.775L224.403 315.731L227.919 313.21H229.125Z" fill="#1C3C55"/>
<path d="M378.959 297.339H276.932V340.439H378.959V297.339Z" fill="white"/>
<path d="M378.196 298.161H277.695V339.617H378.196V298.161Z" stroke="#1C3C55"/>
<path fill-rule="evenodd" clip-rule="evenodd" d="M292.585 313.21V325.092H291.295V314.758L288.449 316.775L287.863 315.731L291.379 313.21H292.585ZM300.119 313.012C301.034 313.012 301.776 313.198 302.345 313.57C303.551 314.338 304.154 316.259 304.154 319.331C304.154 321.504 303.819 323.037 303.149 323.931C302.479 324.825 301.475 325.272 300.135 325.272C298.796 325.272 297.789 324.831 297.113 323.949C296.438 323.067 296.101 321.495 296.101 319.232C296.101 316.97 296.433 315.368 297.097 314.425C297.761 313.483 298.768 313.012 300.119 313.012ZM300.135 314.254C299.499 314.254 298.997 314.398 298.629 314.686C297.836 315.275 297.44 316.829 297.44 319.349C297.44 321.126 297.658 322.353 298.093 323.031C298.528 323.709 299.209 324.048 300.135 324.048C301.062 324.048 301.743 323.706 302.178 323.022C302.613 322.338 302.831 321.069 302.831 319.214C302.831 317.36 302.622 316.07 302.203 315.344C301.785 314.617 301.095 314.254 300.135 314.254ZM311.336 313.21V325.092H310.047V314.758L307.201 316.775L306.615 315.731L310.131 313.21H311.336ZM318.87 313.012C319.785 313.012 320.528 313.198 321.097 313.57C322.302 314.338 322.905 316.259 322.905 319.331C322.905 321.504 322.57 323.037 321.901 323.931C321.231 324.825 320.226 325.272 318.887 325.272C317.548 325.272 316.54 324.831 315.865 323.949C315.19 323.067 314.852 321.495 314.852 319.232C314.852 316.97 315.184 315.368 315.848 314.425C316.512 313.483 317.52 313.012 318.87 313.012ZM318.887 314.254C318.251 314.254 317.748 314.398 317.38 314.686C316.588 315.275 316.191 316.829 316.191 319.349C316.191 321.126 316.409 322.353 316.844 323.031C317.28 323.709 317.961 324.048 318.887 324.048C319.813 324.048 320.494 323.706 320.93 323.022C321.365 322.338 321.582 321.069 321.582 319.214C321.582 317.36 321.373 316.07 320.955 315.344C320.536 314.617 319.847 314.254 318.887 314.254ZM330.088 313.21V325.092H328.798V314.758L325.952 316.775L325.366 315.731L328.882 313.21H330.088ZM337.622 313.012C338.537 313.012 339.279 313.198 339.848 313.57C341.054 314.338 341.657 316.259 341.657 319.331C341.657 321.504 341.322 323.037 340.652 323.931C339.982 324.825 338.978 325.272 337.638 325.272C336.299 325.272 335.292 324.831 334.616 323.949C333.941 323.067 333.604 321.495 333.604 319.232C333.604 316.97 333.936 315.368 334.6 314.425C335.264 313.483 336.271 313.012 337.622 313.012ZM337.638 314.254C337.002 314.254 336.5 314.398 336.132 314.686C335.339 315.275 334.943 316.829 334.943 319.349C334.943 321.126 335.161 322.353 335.596 323.031C336.031 323.709 336.712 324.048 337.638 324.048C338.565 324.048 339.246 323.706 339.681 323.022C340.116 322.338 340.334 321.069 340.334 319.214C340.334 317.36 340.125 316.07 339.706 315.344C339.288 314.617 338.598 314.254 337.638 314.254ZM348.839 313.21V325.092H347.55V314.758L344.704 316.775L344.118 315.731L347.634 313.21H348.839ZM356.373 313.012C357.288 313.012 358.031 313.198 358.6 313.57C359.805 314.338 360.408 316.259 360.408 319.331C360.408 321.504 360.073 323.037 359.404 323.931C358.734 324.825 357.729 325.272 356.39 325.272C355.051 325.272 354.043 324.831 353.368 323.949C352.693 323.067 352.355 321.495 352.355 319.232C352.355 316.97 352.687 315.368 353.351 314.425C354.015 313.483 355.023 313.012 356.373 313.012ZM356.39 314.254C355.754 314.254 355.251 314.398 354.883 314.686C354.091 315.275 353.694 316.829 353.694 319.349C353.694 321.126 353.912 322.353 354.347 323.031C354.783 323.709 355.464 324.048 356.39 324.048C357.316 324.048 357.997 323.706 358.433 323.022C358.868 322.338 359.085 321.069 359.085 319.214C359.085 317.36 358.876 316.07 358.458 315.344C358.039 314.617 357.35 314.254 356.39 314.254ZM367.591 313.21V325.092H366.301V314.758L363.455 316.775L362.869 315.731L366.385 313.21H367.591Z" fill="#1C3C55"/>
<path d="M380.782 124.939H278.754V168.039H380.782V124.939Z" fill="white"/>
<path d="M380.019 125.761H279.517V167.217H380.019V125.761Z" stroke="#89FCA3"/>
<path fill-rule="evenodd" clip-rule="evenodd" d="M292.585 140.81V152.692H291.296V142.358L288.45 144.374L287.864 143.33L291.379 140.81H292.585ZM300.119 140.612C301.034 140.612 301.776 140.798 302.346 141.17C303.551 141.938 304.154 143.858 304.154 146.931C304.154 149.103 303.819 150.636 303.149 151.531C302.48 152.425 301.475 152.872 300.136 152.872C298.796 152.872 297.789 152.431 297.114 151.549C296.438 150.666 296.101 149.094 296.101 146.832C296.101 144.569 296.433 142.967 297.097 142.025C297.761 141.083 298.768 140.612 300.119 140.612ZM300.136 141.854C299.499 141.854 298.997 141.998 298.629 142.286C297.836 142.874 297.44 144.428 297.44 146.949C297.44 148.725 297.658 149.952 298.093 150.63C298.528 151.309 299.209 151.648 300.136 151.648C301.062 151.648 301.743 151.306 302.178 150.621C302.614 149.937 302.831 148.668 302.831 146.814C302.831 144.96 302.622 143.669 302.203 142.943C301.785 142.217 301.096 141.854 300.136 141.854ZM311.336 140.81V152.692H310.047V142.358L307.201 144.374L306.615 143.33L310.131 140.81H311.336ZM318.87 140.612C319.786 140.612 320.528 140.798 321.097 141.17C322.303 141.938 322.905 143.858 322.905 146.931C322.905 149.103 322.571 150.636 321.901 151.531C321.231 152.425 320.227 152.872 318.887 152.872C317.548 152.872 316.54 152.431 315.865 151.549C315.19 150.666 314.852 149.094 314.852 146.832C314.852 144.569 315.184 142.967 315.848 142.025C316.513 141.083 317.52 140.612 318.87 140.612ZM318.887 141.854C318.251 141.854 317.749 141.998 317.38 142.286C316.588 142.874 316.192 144.428 316.192 146.949C316.192 148.725 316.409 149.952 316.845 150.63C317.28 151.309 317.961 151.648 318.887 151.648C319.814 151.648 320.494 151.306 320.93 150.621C321.365 149.937 321.583 148.668 321.583 146.814C321.583 144.96 321.373 143.669 320.955 142.943C320.536 142.217 319.847 141.854 318.887 141.854ZM330.088 140.81V152.692H328.799V142.358L325.953 144.374L325.367 143.33L328.882 140.81H330.088ZM337.622 140.612C338.537 140.612 339.279 140.798 339.849 141.17C341.054 141.938 341.657 143.858 341.657 146.931C341.657 149.103 341.322 150.636 340.652 151.531C339.983 152.425 338.978 152.872 337.639 152.872C336.299 152.872 335.292 152.431 334.617 151.549C333.941 150.666 333.604 149.094 333.604 146.832C333.604 144.569 333.936 142.967 334.6 142.025C335.264 141.083 336.271 140.612 337.622 140.612ZM337.639 141.854C337.002 141.854 336.5 141.998 336.132 142.286C335.339 142.874 334.943 144.428 334.943 146.949C334.943 148.725 335.161 149.952 335.596 150.63C336.031 151.309 336.712 151.648 337.639 151.648C338.565 151.648 339.246 151.306 339.681 150.621C340.117 149.937 340.334 148.668 340.334 146.814C340.334 144.96 340.125 143.669 339.706 142.943C339.288 142.217 338.599 141.854 337.639 141.854ZM348.839 140.81V152.692H347.55V142.358L344.704 144.374L344.118 143.33L347.634 140.81H348.839ZM356.373 140.612C357.289 140.612 358.031 140.798 358.6 141.17C359.806 141.938 360.408 143.858 360.408 146.931C360.408 149.103 360.074 150.636 359.404 151.531C358.734 152.425 357.73 152.872 356.39 152.872C355.051 152.872 354.043 152.431 353.368 151.549C352.693 150.666 352.355 149.094 352.355 146.832C352.355 144.569 352.687 142.967 353.351 142.025C354.016 141.083 355.023 140.612 356.373 140.612ZM356.39 141.854C355.754 141.854 355.252 141.998 354.883 142.286C354.091 142.874 353.695 144.428 353.695 146.949C353.695 148.725 353.912 149.952 354.348 150.63C354.783 151.309 355.464 151.648 356.39 151.648C357.317 151.648 357.997 151.306 358.433 150.621C358.868 149.937 359.086 148.668 359.086 146.814C359.086 144.96 358.876 143.669 358.458 142.943C358.039 142.217 357.35 141.854 356.39 141.854ZM367.591 140.81V152.692H366.302V142.358L363.456 144.374L362.87 143.33L366.385 140.81H367.591Z" fill="black"/>
<path d="M378.959 379.621H276.932V422.721H378.959V379.621Z" fill="white"/>
<path d="M378.196 380.443H277.695V421.899H378.196V380.443Z" stroke="#1C3C55"/>
<path fill-rule="evenodd" clip-rule="evenodd" d="M290.763 395.492V407.374H289.474V397.04L286.627 399.057L286.042 398.012L289.557 395.492H290.763ZM298.297 395.294C299.212 395.294 299.954 395.48 300.524 395.852C301.729 396.62 302.332 398.54 302.332 401.613C302.332 403.785 301.997 405.319 301.327 406.213C300.658 407.107 299.653 407.554 298.314 407.554C296.974 407.554 295.967 407.113 295.292 406.231C294.616 405.349 294.279 403.776 294.279 401.514C294.279 399.252 294.611 397.649 295.275 396.707C295.939 395.765 296.946 395.294 298.297 395.294ZM298.314 396.536C297.677 396.536 297.175 396.68 296.807 396.968C296.014 397.556 295.618 399.111 295.618 401.631C295.618 403.407 295.836 404.634 296.271 405.313C296.706 405.991 297.387 406.33 298.314 406.33C299.24 406.33 299.921 405.988 300.356 405.304C300.792 404.619 301.009 403.35 301.009 401.496C301.009 399.642 300.8 398.351 300.381 397.625C299.963 396.899 299.274 396.536 298.314 396.536ZM309.514 395.492V407.374H308.225V397.04L305.379 399.057L304.793 398.012L308.309 395.492H309.514ZM317.048 395.294C317.964 395.294 318.706 395.48 319.275 395.852C320.481 396.62 321.083 398.54 321.083 401.613C321.083 403.785 320.749 405.319 320.079 406.213C319.409 407.107 318.405 407.554 317.065 407.554C315.726 407.554 314.718 407.113 314.043 406.231C313.368 405.349 313.03 403.776 313.03 401.514C313.03 399.252 313.362 397.649 314.026 396.707C314.691 395.765 315.698 395.294 317.048 395.294ZM317.065 396.536C316.429 396.536 315.927 396.68 315.558 396.968C314.766 397.556 314.37 399.111 314.37 401.631C314.37 403.407 314.587 404.634 315.023 405.313C315.458 405.991 316.139 406.33 317.065 406.33C317.992 406.33 318.672 405.988 319.108 405.304C319.543 404.619 319.761 403.35 319.761 401.496C319.761 399.642 319.551 398.351 319.133 397.625C318.714 396.899 318.025 396.536 317.065 396.536ZM328.266 395.492V407.374H326.977V397.04L324.13 399.057L323.545 398.012L327.06 395.492H328.266ZM335.8 395.294C336.715 395.294 337.457 395.48 338.027 395.852C339.232 396.62 339.835 398.54 339.835 401.613C339.835 403.785 339.5 405.319 338.83 406.213C338.161 407.107 337.156 407.554 335.817 407.554C334.477 407.554 333.47 407.113 332.795 406.231C332.119 405.349 331.782 403.776 331.782 401.514C331.782 399.252 332.114 397.649 332.778 396.707C333.442 395.765 334.449 395.294 335.8 395.294ZM335.817 396.536C335.18 396.536 334.678 396.68 334.31 396.968C333.517 397.556 333.121 399.111 333.121 401.631C333.121 403.407 333.339 404.634 333.774 405.313C334.209 405.991 334.89 406.33 335.817 406.33C336.743 406.33 337.424 405.988 337.859 405.304C338.295 404.619 338.512 403.35 338.512 401.496C338.512 399.642 338.303 398.351 337.884 397.625C337.466 396.899 336.777 396.536 335.817 396.536ZM347.017 395.492V407.374H345.728V397.04L342.882 399.057L342.296 398.012L345.812 395.492H347.017ZM354.551 395.294C355.467 395.294 356.209 395.48 356.778 395.852C357.984 396.62 358.586 398.54 358.586 401.613C358.586 403.785 358.252 405.319 357.582 406.213C356.912 407.107 355.908 407.554 354.568 407.554C353.229 407.554 352.221 407.113 351.546 406.231C350.871 405.349 350.533 403.776 350.533 401.514C350.533 399.252 350.865 397.649 351.529 396.707C352.194 395.765 353.201 395.294 354.551 395.294ZM354.568 396.536C353.932 396.536 353.43 396.68 353.061 396.968C352.269 397.556 351.873 399.111 351.873 401.631C351.873 403.407 352.09 404.634 352.526 405.313C352.961 405.991 353.642 406.33 354.568 406.33C355.495 406.33 356.175 405.988 356.611 405.304C357.046 404.619 357.264 403.35 357.264 401.496C357.264 399.642 357.054 398.351 356.636 397.625C356.217 396.899 355.528 396.536 354.568 396.536ZM365.769 395.492V407.374H364.48V397.04L361.633 399.057L361.048 398.012L364.563 395.492H365.769Z" fill="#1C3C55"/>
<path d="M415.898 422.221V380.121H516.926V422.221H415.898Z" fill="white" stroke="#89FCA3"/>
<path d="M516.663 380.443H416.161V421.899H516.663V380.443Z" stroke="#89FCA3"/>
<path d="M430.006 395.992H430.551V406.874H430.262V397.04V396.073L429.473 396.632L427.08 398.327L426.985 398.158L430.006 395.992ZM440.538 396.271L440.538 396.271L440.543 396.274C441.013 396.573 441.411 397.125 441.691 398.018C441.971 398.911 442.12 400.104 442.12 401.613C442.12 403.764 441.783 405.156 441.215 405.913C440.659 406.655 439.819 407.054 438.602 407.054C437.382 407.054 436.538 406.659 435.977 405.927C435.409 405.185 435.067 403.761 435.067 401.514C435.067 399.271 435.402 397.804 435.972 396.995C436.525 396.21 437.365 395.794 438.585 395.794C439.436 395.794 440.074 395.967 440.538 396.271ZM448.758 395.992H449.302V406.874H449.013V397.04V396.073L448.224 396.632L445.831 398.327L445.736 398.158L448.758 395.992ZM459.29 396.271L459.29 396.271L459.295 396.274C459.764 396.573 460.162 397.125 460.442 398.018C460.723 398.911 460.871 400.104 460.871 401.613C460.871 403.764 460.534 405.156 459.967 405.913C459.411 406.655 458.57 407.054 457.353 407.054C456.134 407.054 455.289 406.659 454.728 405.927C454.161 405.185 453.818 403.761 453.818 401.514C453.818 399.271 454.153 397.804 454.723 396.995C455.277 396.21 456.117 395.794 457.337 395.794C458.187 395.794 458.825 395.967 459.29 396.271ZM467.509 395.992H468.054V406.874H467.765V397.04V396.073L466.976 396.632L464.583 398.327L464.488 398.158L467.509 395.992ZM478.041 396.271L478.041 396.271L478.046 396.274C478.516 396.573 478.914 397.125 479.194 398.018C479.474 398.911 479.623 400.104 479.623 401.613C479.623 403.764 479.286 405.156 478.718 405.913C478.162 406.655 477.322 407.054 476.105 407.054C474.885 407.054 474.041 406.659 473.48 405.927C472.912 405.185 472.57 403.761 472.57 401.514C472.57 399.271 472.905 397.804 473.475 396.995C474.028 396.21 474.868 395.794 476.088 395.794C476.939 395.794 477.577 395.967 478.041 396.271ZM486.261 395.992H486.805V406.874H486.516V397.04V396.073L485.727 396.632L483.334 398.327L483.239 398.158L486.261 395.992ZM496.793 396.271L496.793 396.271L496.798 396.274C497.267 396.573 497.665 397.125 497.945 398.018C498.226 398.911 498.374 400.104 498.374 401.613C498.374 403.764 498.037 405.156 497.47 405.913C496.914 406.655 496.073 407.054 494.856 407.054C493.637 407.054 492.792 406.659 492.231 405.927C491.664 405.185 491.321 403.761 491.321 401.514C491.321 399.271 491.656 397.804 492.226 396.995C492.78 396.21 493.62 395.794 494.84 395.794C495.69 395.794 496.328 395.967 496.793 396.271ZM505.012 395.992H505.557V406.874H505.268V397.04V396.073L504.479 396.632L502.086 398.327L501.991 398.158L505.012 395.992ZM438.602 396.036C437.896 396.036 437.274 396.195 436.792 396.57C436.264 396.965 435.928 397.63 435.719 398.451C435.506 399.285 435.406 400.35 435.406 401.631C435.406 403.413 435.618 404.772 436.138 405.583C436.681 406.428 437.535 406.83 438.602 406.83C439.67 406.83 440.525 406.423 441.066 405.572C441.334 405.151 441.513 404.589 441.627 403.923C441.742 403.251 441.797 402.44 441.797 401.496C441.797 399.636 441.593 398.226 441.103 397.376C440.58 396.469 439.709 396.036 438.602 396.036ZM457.353 396.036C456.648 396.036 456.026 396.195 455.543 396.571C455.016 396.965 454.68 397.63 454.47 398.451C454.258 399.285 454.158 400.35 454.158 401.631C454.158 403.413 454.369 404.772 454.89 405.583C455.432 406.428 456.286 406.83 457.353 406.83C458.422 406.83 459.276 406.423 459.818 405.572C460.086 405.151 460.264 404.589 460.378 403.923C460.494 403.251 460.549 402.44 460.549 401.496C460.549 399.636 460.345 398.226 459.854 397.376C459.332 396.469 458.461 396.036 457.353 396.036ZM476.105 396.036C475.399 396.036 474.777 396.195 474.295 396.57C473.767 396.965 473.431 397.63 473.222 398.451C473.009 399.285 472.909 400.35 472.909 401.631C472.909 403.413 473.121 404.772 473.641 405.583C474.184 406.428 475.038 406.83 476.105 406.83C477.173 406.83 478.028 406.423 478.569 405.572C478.837 405.151 479.016 404.589 479.13 403.923C479.245 403.251 479.3 402.44 479.3 401.496C479.3 399.636 479.096 398.226 478.606 397.376C478.083 396.469 477.212 396.036 476.105 396.036ZM494.856 396.036C494.151 396.036 493.529 396.195 493.046 396.571C492.519 396.965 492.183 397.63 491.973 398.451C491.761 399.285 491.661 400.35 491.661 401.631C491.661 403.413 491.872 404.772 492.393 405.583C492.935 406.428 493.789 406.83 494.856 406.83C495.925 406.83 496.779 406.423 497.321 405.572C497.589 405.151 497.767 404.589 497.881 403.923C497.997 403.251 498.052 402.44 498.052 401.496C498.052 399.636 497.848 398.226 497.357 397.376C496.835 396.469 495.964 396.036 494.856 396.036Z" fill="#89FCA3" stroke="black"/>
<path d="M517.426 459.944H415.398V503.044H517.426V459.944Z" fill="white"/>
<path d="M516.663 460.766H416.161V502.222H516.663V460.766Z" stroke="#1C3C55"/>
<path fill-rule="evenodd" clip-rule="evenodd" d="M431.051 473.856V485.738H429.762V475.404L426.916 477.42L426.33 476.376L429.845 473.856H431.051ZM438.585 473.658C439.5 473.658 440.243 473.844 440.812 474.216C442.017 474.984 442.62 476.904 442.62 479.977C442.62 482.149 442.285 483.682 441.615 484.576C440.946 485.471 439.941 485.918 438.602 485.918C437.262 485.918 436.255 485.477 435.58 484.594C434.904 483.712 434.567 482.14 434.567 479.878C434.567 477.615 434.899 476.013 435.563 475.071C436.227 474.129 437.234 473.658 438.585 473.658ZM438.602 474.9C437.966 474.9 437.463 475.044 437.095 475.332C436.302 475.92 435.906 477.474 435.906 479.995C435.906 481.771 436.124 482.998 436.559 483.676C436.995 484.354 437.675 484.693 438.602 484.693C439.528 484.693 440.209 484.351 440.644 483.667C441.08 482.983 441.297 481.714 441.297 479.86C441.297 478.005 441.088 476.715 440.669 475.989C440.251 475.263 439.562 474.9 438.602 474.9ZM449.802 473.856V485.738H448.513V475.404L445.667 477.42L445.081 476.376L448.597 473.856H449.802ZM457.337 473.658C458.252 473.658 458.994 473.844 459.563 474.216C460.769 474.984 461.371 476.904 461.371 479.977C461.371 482.149 461.037 483.682 460.367 484.576C459.697 485.471 458.693 485.918 457.353 485.918C456.014 485.918 455.007 485.477 454.331 484.594C453.656 483.712 453.318 482.14 453.318 479.878C453.318 477.615 453.65 476.013 454.315 475.071C454.979 474.129 455.986 473.658 457.337 473.658ZM457.353 474.9C456.717 474.9 456.215 475.044 455.846 475.332C455.054 475.92 454.658 477.474 454.658 479.995C454.658 481.771 454.875 482.998 455.311 483.676C455.746 484.354 456.427 484.693 457.353 484.693C458.28 484.693 458.961 484.351 459.396 483.667C459.831 482.983 460.049 481.714 460.049 479.86C460.049 478.005 459.84 476.715 459.421 475.989C459.002 475.263 458.313 474.9 457.353 474.9ZM468.554 473.856V485.738H467.265V475.404L464.419 477.42L463.833 476.376L467.348 473.856H468.554ZM476.088 473.658C477.003 473.658 477.746 473.844 478.315 474.216C479.52 474.984 480.123 476.904 480.123 479.977C480.123 482.149 479.788 483.682 479.118 484.576C478.449 485.471 477.444 485.918 476.105 485.918C474.765 485.918 473.758 485.477 473.083 484.594C472.407 483.712 472.07 482.14 472.07 479.878C472.07 477.615 472.402 476.013 473.066 475.071C473.73 474.129 474.737 473.658 476.088 473.658ZM476.105 474.9C475.469 474.9 474.966 475.044 474.598 475.332C473.805 475.92 473.409 477.474 473.409 479.995C473.409 481.771 473.627 482.998 474.062 483.676C474.498 484.354 475.178 484.693 476.105 484.693C477.031 484.693 477.712 484.351 478.147 483.667C478.583 482.983 478.8 481.714 478.8 479.86C478.8 478.005 478.591 476.715 478.172 475.989C477.754 475.263 477.065 474.9 476.105 474.9ZM487.305 473.856V485.738H486.016V475.404L483.17 477.42L482.584 476.376L486.1 473.856H487.305ZM494.84 473.658C495.755 473.658 496.497 473.844 497.066 474.216C498.272 474.984 498.874 476.904 498.874 479.977C498.874 482.149 498.54 483.682 497.87 484.576C497.2 485.471 496.196 485.918 494.856 485.918C493.517 485.918 492.51 485.477 491.834 484.594C491.159 483.712 490.821 482.14 490.821 479.878C490.821 477.615 491.153 476.013 491.818 475.071C492.482 474.129 493.489 473.658 494.84 473.658ZM494.856 474.9C494.22 474.9 493.718 475.044 493.349 475.332C492.557 475.92 492.161 477.474 492.161 479.995C492.161 481.771 492.378 482.998 492.814 483.676C493.249 484.354 493.93 484.693 494.856 484.693C495.783 484.693 496.464 484.351 496.899 483.667C497.334 482.983 497.552 481.714 497.552 479.86C497.552 478.005 497.343 476.715 496.924 475.989C496.505 475.263 495.816 474.9 494.856 474.9ZM506.057 473.856V485.738H504.768V475.404L501.922 477.42L501.336 476.376L504.852 473.856H506.057Z" fill="#1C3C55"/>
<path fill-rule="evenodd" clip-rule="evenodd" d="M566.509 525.464L565.567 537.456C565.567 537.456 569.337 542.453 572.165 545.451C574.05 547.45 570.28 547.45 568.395 546.45C566.509 545.451 558.445 543.225 558.969 540.454C559.911 535.457 558.026 526.463 558.026 526.463L566.509 525.464Z" fill="white" stroke="#1C3C55" stroke-width="0.7"/>
<path fill-rule="evenodd" clip-rule="evenodd" d="M540.188 527.431L541.152 539.456C541.152 539.456 538.379 543.595 535.365 546.471C532.215 549.477 536.33 549.477 538.259 548.475C540.188 547.473 548.439 545.241 547.904 542.462C546.939 537.452 548.868 528.433 548.868 528.433L540.188 527.431Z" fill="white" stroke="#1C3C55" stroke-width="0.7"/>
<path fill-rule="evenodd" clip-rule="evenodd" d="M543.391 372.808C543.391 372.808 531.52 387.811 532.433 416.815C533.346 445.82 541.565 532.834 541.565 532.834C541.565 532.834 550.697 534.834 550.697 530.833C550.697 526.71 552.523 433.818 553.436 422.816C554.349 411.814 557.089 530.833 557.089 530.833C557.089 530.833 558.915 532.834 562.568 532.834C566.22 532.834 567.134 531.834 567.134 531.834C567.134 531.834 575.352 444.82 574.439 422.816C573.526 400.813 569.873 371.808 567.134 368.808C564.394 365.807 543.391 372.808 543.391 372.808Z" fill="white" stroke="#1C3C55" stroke-width="0.7"/>
<path fill-rule="evenodd" clip-rule="evenodd" d="M540.245 347.622C545.735 334.726 550.31 334.726 550.31 334.726C554.885 333.734 551.225 320.839 551.225 320.839H558.545C557.63 322.823 557.63 332.743 559.46 333.734C561.29 334.726 565.865 332.743 570.44 340.678C575.015 348.614 579.59 371.429 577.76 389.284C575.93 407.14 569.525 420.035 566.78 421.027C564.035 422.019 566.012 418.403 568.61 407.14C570.44 399.204 570.201 393.626 569.822 388.281C569.202 379.565 567.029 371.028 565.886 368.504C566.077 368.961 568.311 377.445 564.035 378.373C559.46 379.365 544.82 379.365 542.075 377.381C540.968 376.581 543.449 362.35 542.525 359.685C539.258 361.524 535.113 370.052 528.273 372.306C521.433 374.559 512.998 377.381 512.501 382.841C512.003 388.301 506.8 382.734 507.787 378.373C508.775 374.011 517.456 369.113 520.927 367.908C534.463 362.102 534.754 360.517 540.245 347.622Z" fill="white" stroke="#1C3C55" stroke-width="0.7"/>
<path fill-rule="evenodd" clip-rule="evenodd" d="M556.365 325.08C556.365 325.08 555.275 326.972 551.417 326.718C547.559 326.464 544.916 322.362 545.23 317.472C545.543 312.583 545.981 305.737 551.83 305.14C557.679 304.543 560.197 310.601 559.821 316.468C559.446 322.337 556.365 325.08 556.365 325.08Z" fill="white" stroke="#1C3C55" stroke-width="0.7"/>
<path fill-rule="evenodd" clip-rule="evenodd" d="M535.708 387.821C535.678 388.332 557.908 391.265 570.805 388.598C569.446 377.911 567.545 364.88 567.545 364.88C567.545 364.88 577.048 363.877 579.899 362.875C580.85 362.875 575.148 343.83 572.297 338.818C570.222 335.172 565.645 329.797 559.943 330.799C559.943 333.806 558.042 334.809 555.191 334.809C552.34 334.809 551.39 331.802 551.39 331.802C551.39 331.802 548.539 331.802 545.688 334.809C542.837 337.816 532.383 358.866 532.383 358.866L539.036 361.873C539.036 361.873 536.181 379.689 535.708 387.821Z" fill="#89FCA3" stroke="black"/>
<path fill-rule="evenodd" clip-rule="evenodd" d="M553.794 301.234C553.794 301.234 552.057 298.461 551.189 299.384C550.32 300.309 550.32 302.159 549.452 302.159C548.583 302.159 545.978 299.384 545.978 301.234C545.978 303.084 546.846 303.084 545.109 304.008C543.373 304.933 543.373 305.858 543.373 306.783C543.373 307.706 545.978 306.783 546.846 307.706C547.716 308.632 545.274 309.504 548.124 309.504C551.085 309.504 548.288 310.097 550.975 311.527C552.876 312.539 552.925 309.556 553.794 309.556C554.661 309.556 551.926 312.539 553.826 312.539C555.767 312.539 554.776 312.539 555.727 311.527C557.1 310.066 555.304 312.09 556.677 313.551C557.627 314.563 558.135 314.18 557.267 315.105C556.398 316.029 554.661 316.954 555.53 317.878C556.398 318.803 554.661 321.578 557.267 320.653C559.872 319.728 558.135 319.728 559.003 317.878C559.872 316.029 559.872 316.029 560.741 316.029C561.609 316.029 564.214 315.105 563.346 313.255L561.609 309.556C561.609 309.556 563.346 308.632 563.346 306.783C563.346 304.933 559.872 305.858 559.872 305.858C559.872 305.858 561.609 303.084 559.872 302.159C558.135 301.234 557.267 303.084 556.398 303.084C555.53 303.084 556.398 301.234 553.794 301.234Z" fill="white" stroke="#1C3C55" stroke-width="0.7"/>
</svg>
