<svg width="600" height="600" viewBox="0 0 600 600" fill="none" xmlns="http://www.w3.org/2000/svg">
<g opacity="0.2">
<path d="M576.448 452.823L529.214 142.481" stroke="#979797"/>
<path d="M278.506 319.463L370.554 591.168M370.554 591.168L528.003 142.481L5.53735 280.937L370.554 591.168ZM370.554 591.168L333.977 5.51843" stroke="#979797"/>
<path d="M278.506 321.956L139.224 502.677L369.5 589" stroke="#979797"/>
<path d="M276.084 319.463L176.77 103.845L339.064 2.89014" stroke="#979797"/>
<path d="M141.647 503.923L4.52637 280.174" stroke="#979797"/>
<path d="M528.002 142.481L333.613 1.6438L575.237 455.315L4.78711 279.58L176.77 102.598" stroke="#979797"/>
</g>
<path d="M176.33 108.756C178.674 108.756 180.575 106.798 180.575 104.384C180.575 101.969 178.674 100.011 176.33 100.011C173.986 100.011 172.085 101.969 172.085 104.384C172.085 106.798 173.986 108.756 176.33 108.756Z" fill="#C4C4C4"/>
<path d="M176.33 120C184.702 120 191.489 113.008 191.489 104.384C191.489 95.7588 184.702 88.7671 176.33 88.7671C167.957 88.7671 161.17 95.7588 161.17 104.384C161.17 113.008 167.957 120 176.33 120Z" stroke="#CACACA"/>
<path d="M575.266 457.249C577.61 457.249 579.511 455.292 579.511 452.877C579.511 450.462 577.61 448.504 575.266 448.504C572.922 448.504 571.021 450.462 571.021 452.877C571.021 455.292 572.922 457.249 575.266 457.249Z" fill="#C4C4C4"/>
<path d="M575.266 468.493C583.638 468.493 590.426 461.501 590.426 452.877C590.426 444.252 583.638 437.26 575.266 437.26C566.894 437.26 560.106 444.252 560.106 452.877C560.106 461.501 566.894 468.493 575.266 468.493Z" stroke="#CACACA"/>
<path d="M479.521 284.647C481.866 284.647 483.766 282.689 483.766 280.274C483.766 277.859 481.866 275.901 479.521 275.901C477.177 275.901 475.277 277.859 475.277 280.274C475.277 282.689 477.177 284.647 479.521 284.647Z" fill="#C4C4C4"/>
<path d="M479.521 295.89C487.894 295.89 494.681 288.899 494.681 280.274C494.681 271.649 487.894 264.657 479.521 264.657C471.149 264.657 464.362 271.649 464.362 280.274C464.362 288.899 471.149 295.89 479.521 295.89Z" stroke="#CACACA"/>
<path d="M139.628 508.208C141.972 508.208 143.872 506.251 143.872 503.836C143.872 501.421 141.972 499.463 139.628 499.463C137.283 499.463 135.383 501.421 135.383 503.836C135.383 506.251 137.283 508.208 139.628 508.208Z" fill="#C4C4C4"/>
<path d="M139.628 519.452C148 519.452 154.787 512.46 154.787 503.836C154.787 495.211 148 488.219 139.628 488.219C131.255 488.219 124.468 495.211 124.468 503.836C124.468 512.46 131.255 519.452 139.628 519.452Z" stroke="#CACACA"/>
<path d="M369.383 594.151C372.908 594.151 375.766 591.207 375.766 587.575C375.766 583.944 372.908 581 369.383 581C365.858 581 363 583.944 363 587.575C363 591.207 365.858 594.151 369.383 594.151Z" fill="#7B7B7B"/>
<path d="M4.78723 286.027C7.43115 286.027 9.57447 283.82 9.57447 281.096C9.57447 278.372 7.43115 276.164 4.78723 276.164C2.14332 276.164 0 278.372 0 281.096C0 283.82 2.14332 286.027 4.78723 286.027Z" fill="#7B7B7B"/>
<path d="M335.106 9.86301C337.75 9.86301 339.894 7.6551 339.894 4.93151C339.894 2.20791 337.75 0 335.106 0C332.462 0 330.319 2.20791 330.319 4.93151C330.319 7.6551 332.462 9.86301 335.106 9.86301Z" fill="#7B7B7B"/>
<path d="M525.798 150.81C529.537 150.81 532.568 147.688 532.568 143.836C532.568 139.984 529.537 136.861 525.798 136.861C522.059 136.861 519.027 139.984 519.027 143.836C519.027 147.688 522.059 150.81 525.798 150.81Z" fill="#89FCA3"/>
<path d="M525.798 166.027C537.695 166.027 547.34 156.092 547.34 143.836C547.34 131.579 537.695 121.644 525.798 121.644C513.9 121.644 504.255 131.579 504.255 143.836C504.255 156.092 513.9 166.027 525.798 166.027Z" stroke="#89FCA3"/>
<path fill-rule="evenodd" clip-rule="evenodd" d="M235.41 174.342C211.306 186.328 199.255 197.562 199.255 208.043C199.255 223.765 181.156 275.819 187.545 293.453C193.934 311.088 202.963 361.197 202.963 380.442C202.963 399.686 211.95 425.912 205.602 436.277C199.255 446.642 207.107 474.826 214.421 474.826C221.735 474.826 246.106 459.631 246.106 457.091C246.106 454.551 270.394 470.538 276.663 470.538C282.931 470.538 302.173 471.263 302.173 463.116C302.173 454.969 311.284 474.826 313.967 474.826C316.651 474.826 324.599 486.536 337.75 474.826C350.9 463.116 346.764 448.911 354.091 448.911C361.419 448.911 358.889 472.373 376.946 474.826C395.003 477.279 430.602 469.142 423.213 463.116C415.823 457.091 401.626 436.738 401.626 422.267C401.626 407.797 405.159 345.095 401.626 333.492C399.27 325.757 399.27 312.41 401.626 293.453C415.937 303.675 424.166 307.764 426.312 305.721C429.532 302.656 429.412 283.421 426.312 274.197C423.213 264.973 394.597 236.677 392.525 229.138C390.452 221.599 368.496 191.41 368.496 182.876C368.496 174.342 376.32 151.319 368.496 144.304C360.672 137.288 349.704 127.301 337.75 129.858C325.795 132.415 320.87 150.102 320.87 154.905C320.87 159.708 320.504 177.081 313.967 182.876C307.431 188.671 308.532 194.466 302.173 188.671C295.814 182.876 276.663 183.684 276.663 174.342C276.663 164.999 283.625 153.712 283.625 149.008C283.625 144.304 272.179 120.072 261.756 117.759C251.333 115.446 239.273 121.624 237.342 129.858C236.054 135.347 235.41 150.175 235.41 174.342Z" fill="white"/>
<path fill-rule="evenodd" clip-rule="evenodd" d="M356.259 170.001C356.259 171.386 350.86 179.698 357.609 188.009C364.357 196.32 367.505 192.367 376.504 208.788C388.652 230.951 398.099 250.345 408.897 262.812C419.694 275.279 425.093 280.82 423.743 287.746C422.394 294.672 421.044 294.672 419.694 291.902C418.345 289.131 419.694 284.976 415.645 282.205C411.596 279.435 398.099 266.968 398.099 266.968C398.099 266.968 379.204 248.96 375.155 243.419C371.106 237.878 372.455 246.189 373.805 250.345C375.155 254.5 387.302 304.369 385.952 329.303C384.603 354.238 384.603 362.549 385.952 380.557C387.302 398.565 387.302 441.508 392.701 452.589C398.099 463.671 404.848 466.442 403.498 467.827C402.148 469.212 383.253 462.286 383.253 458.13C383.253 453.975 385.952 453.975 383.253 448.434C380.553 442.893 364.357 399.95 364.357 386.098C364.357 372.246 356.259 330.689 356.259 330.689C356.259 330.689 350.86 314.066 349.511 312.68C348.161 311.295 345.462 361.164 341.413 379.172C338.713 399.95 342.762 398.565 337.364 423.499C331.965 448.434 331.965 452.589 333.314 456.745C334.664 460.901 334.664 462.286 329.265 465.057C323.867 467.827 315.769 470.598 317.118 466.442C318.468 462.286 325.216 458.13 325.216 453.975C325.216 449.819 321.167 399.95 319.818 390.254C318.468 380.557 315.769 361.164 315.769 348.697V311.295C315.769 304.369 326.566 257.271 327.916 248.96C329.265 240.648 329.265 236.492 327.916 239.263C326.566 242.033 322.517 266.968 318.468 278.05C314.419 289.131 309.02 301.599 309.02 308.525C309.02 315.451 311.719 315.451 311.719 319.607C311.719 323.762 307.67 320.992 304.971 316.836C302.272 312.68 300.922 309.91 302.272 301.599C303.621 293.287 309.02 260.041 311.719 250.345C314.419 240.648 322.517 208.788 326.566 203.247C330.615 197.706 340.063 193.55 342.762 189.394C345.462 185.239 345.462 170.001 345.462 170.001H356.259Z" fill="white"/>
<path fill-rule="evenodd" clip-rule="evenodd" d="M356.259 170.001C356.259 171.386 350.86 179.698 357.609 188.009C364.357 196.32 367.505 192.367 376.504 208.788C388.652 230.951 398.099 250.345 408.897 262.812C419.694 275.279 425.093 280.82 423.743 287.746C422.394 294.672 421.044 294.672 419.694 291.902C418.345 289.131 419.694 284.976 415.645 282.205C411.596 279.435 398.099 266.968 398.099 266.968C398.099 266.968 379.204 248.96 375.155 243.419C371.106 237.878 372.455 246.189 373.805 250.345C375.155 254.5 387.302 304.369 385.952 329.303C384.603 354.238 384.603 362.549 385.952 380.557C387.302 398.565 387.302 441.508 392.701 452.589C398.099 463.671 404.848 466.442 403.498 467.827C402.148 469.212 383.253 462.286 383.253 458.13C383.253 453.975 385.952 453.975 383.253 448.434C380.553 442.893 364.357 399.95 364.357 386.098C364.357 372.246 356.259 330.689 356.259 330.689C356.259 330.689 350.86 314.066 349.511 312.68C348.161 311.295 345.462 361.164 341.413 379.172C338.713 399.95 342.762 398.565 337.364 423.499C331.965 448.434 331.965 452.589 333.314 456.745C334.664 460.901 334.664 462.286 329.265 465.057C323.867 467.827 315.769 470.598 317.118 466.442C318.468 462.286 325.216 458.13 325.216 453.975C325.216 449.819 321.167 399.95 319.818 390.254C318.468 380.557 315.769 361.164 315.769 348.697V311.295C315.769 304.369 326.566 257.271 327.916 248.96C329.265 240.648 329.265 236.492 327.916 239.263C326.566 242.033 322.517 266.968 318.468 278.05C314.419 289.131 309.02 301.599 309.02 308.525C309.02 315.451 311.719 315.451 311.719 319.607C311.719 323.762 307.67 320.992 304.971 316.836C302.272 312.68 300.922 309.91 302.272 301.599C303.621 293.287 309.02 260.041 311.719 250.345C314.419 240.648 322.517 208.788 326.566 203.247C330.615 197.706 340.063 193.55 342.762 189.394C345.462 185.239 345.462 170.001 345.462 170.001H356.259Z" stroke="#1C3C55"/>
<path fill-rule="evenodd" clip-rule="evenodd" d="M356.514 173.321C356.514 173.321 355.139 176.063 349.643 176.063C344.146 176.063 340.023 170.579 340.023 163.725C340.023 156.87 340.023 147.274 348.268 145.903C356.514 144.532 360.636 152.758 360.636 160.983C360.636 169.209 356.514 173.321 356.514 173.321Z" fill="white"/>
<path fill-rule="evenodd" clip-rule="evenodd" d="M356.514 173.321C356.514 173.321 355.139 176.063 349.643 176.063C344.146 176.063 340.023 170.579 340.023 163.725C340.023 156.87 340.023 147.274 348.268 145.903C356.514 144.532 360.636 152.758 360.636 160.983C360.636 169.209 356.514 173.321 356.514 173.321Z" stroke="#1C3C55"/>
<path fill-rule="evenodd" clip-rule="evenodd" d="M361.582 191.218C361.582 191.218 358.904 204.997 350.872 206.375C342.839 207.753 340.096 192.081 338.791 192.339C337.485 192.596 334.791 195.203 334.791 195.203C334.791 195.203 335.55 220.466 334.807 224.287C333.468 231.176 328.113 238.065 328.113 238.065C328.113 238.065 328.887 241.179 327.162 252.712C325.436 264.244 312.049 305.579 312.049 322.113C312.049 327.625 338.823 331.758 356.227 330.38C369.866 329.3 385.15 323.143 391.123 320.53C392.602 319.883 393.361 318.198 392.888 316.617C390.124 307.41 381.238 277.652 378.985 268.378C378.985 268.378 372.737 245.873 373.184 240.591C373.63 235.309 366.936 232.554 365.598 220.153C364.259 207.753 366.936 193.974 366.936 193.974L361.582 191.218Z" fill="#89FCA3" stroke="black"/>
<path fill-rule="evenodd" clip-rule="evenodd" d="M326.962 168.925C328.077 158.298 334.327 154.223 335.589 154.204C336.849 154.185 334.214 140.078 343.628 139.714C346.879 139.588 348.652 139.987 349.608 140.557C349.909 140.606 350.209 140.657 350.538 140.714C364.446 143.155 365.925 159.048 364.719 163.045C363.513 167.042 360.972 165.755 360.972 165.755C360.972 165.755 363.404 159.087 358.322 156.511C354.156 154.399 349.935 147.837 348.538 144.809C346.427 146.78 343.105 150.465 343.154 154.09C343.227 159.394 341.62 169.169 341.839 167.605C342.057 166.042 338.164 158.144 338.164 158.144C338.164 158.144 336.849 154.185 338.256 164.774C339.663 175.363 339.772 183.319 334.783 187.374C329.795 191.428 325.847 179.552 326.962 168.925Z" fill="white"/>
<path fill-rule="evenodd" clip-rule="evenodd" d="M326.962 168.925C328.077 158.298 334.327 154.223 335.589 154.204C336.849 154.185 334.214 140.078 343.628 139.714C346.879 139.588 348.652 139.987 349.608 140.557C349.909 140.606 350.209 140.657 350.538 140.714C364.446 143.155 365.925 159.048 364.719 163.045C363.513 167.042 360.972 165.755 360.972 165.755C360.972 165.755 363.404 159.087 358.322 156.511C354.156 154.399 349.935 147.837 348.538 144.809C346.427 146.78 343.105 150.465 343.154 154.09C343.227 159.394 341.62 169.169 341.839 167.605C342.057 166.042 338.164 158.144 338.164 158.144C338.164 158.144 336.849 154.185 338.256 164.774C339.663 175.363 339.772 183.319 334.783 187.374C329.795 191.428 325.847 179.552 326.962 168.925Z" stroke="#1C3C55"/>
<path fill-rule="evenodd" clip-rule="evenodd" d="M251.759 174.854C249.207 180.09 233.893 185.327 222.408 199.729C213.372 211.057 205.818 227.223 201.989 258.643C198.161 290.064 203.265 292.682 204.543 288.756C205.818 284.828 205.818 276.972 205.818 273.045C205.818 273.045 216.027 229.841 222.408 221.985C228.789 214.13 216.027 261.262 216.027 261.262C216.027 261.262 267.073 265.189 269.625 262.571C272.178 259.952 270.902 220.676 274.729 214.13C278.558 207.584 297.701 231.149 296.424 233.769C295.148 236.387 276.006 248.17 272.178 253.406C268.349 258.643 270.902 261.262 273.454 265.189C276.006 269.117 278.558 270.427 278.558 266.499C278.558 262.571 273.454 258.643 277.282 257.334C281.11 256.024 305.357 246.86 310.461 239.005C315.567 231.149 295.148 204.966 287.491 197.11C279.835 189.255 265.796 182.709 264.521 177.472C263.245 172.234 262.693 161.512 261.417 154.966C260.142 148.419 251.759 156.525 251.759 156.525C251.759 157.833 254.312 169.616 251.759 174.854Z" fill="white" stroke="#1C3C55"/>
<path fill-rule="evenodd" clip-rule="evenodd" d="M247.005 163.019C247.005 163.019 247.889 165.96 253.177 166.86C258.466 167.762 263.309 163.008 264.407 156.223C265.504 149.436 267.043 139.934 259.327 137.225C251.614 134.516 246.332 141.984 245.014 150.127C243.698 158.271 247.005 163.019 247.005 163.019Z" fill="white" stroke="#1C3C55"/>
<path fill-rule="evenodd" clip-rule="evenodd" d="M220.412 225.053C218.3 229.959 209.427 258.008 209.427 258.008C208.245 266.066 224.865 271.542 241.533 271.542C260.541 271.542 270.68 262.318 270.68 262.318C270.68 262.318 268.859 256.531 269.412 245.609C270.089 232.228 272.682 214.275 273.381 211.372C274.647 206.101 281.686 211.745 285.488 213.063C289.29 214.38 297.292 209.603 291.843 201.754C286.394 193.904 269.412 180.61 269.412 180.61L252.938 197.743L243.787 178.746L235.569 184.851C229.138 189.446 216.968 200.841 210.865 214.158C210.865 214.158 222.525 220.145 220.412 225.053Z" fill="#89FCA3"/>
<path fill-rule="evenodd" clip-rule="evenodd" d="M220.412 225.053C218.3 229.959 209.427 258.008 209.427 258.008C208.245 266.066 224.865 271.542 241.533 271.542C260.541 271.542 269.257 262.318 270.68 262.318C272.102 262.318 270.127 259.702 270.68 248.781C271.357 235.399 273.054 218.931 273.753 216.028C275.019 210.757 281.386 212.84 285.188 214.158C288.99 215.475 297.292 209.603 291.843 201.754C286.394 193.904 269.412 180.61 269.412 180.61L252.938 197.743L243.787 178.746L235.569 184.851C229.138 189.446 216.968 200.841 210.865 214.158C210.865 214.158 222.525 220.145 220.412 225.053Z" stroke="black"/>
<path fill-rule="evenodd" clip-rule="evenodd" d="M257.644 135.767C257.484 134.466 257.644 142.325 253.789 143.637C249.936 144.95 247.368 146.261 247.368 146.261C247.368 146.261 245.285 155.7 247.853 158.323C244 159.635 242.231 160.689 239.662 155.443C237.093 150.196 240.946 144.95 243.515 141.014C246.083 137.079 251.221 127.897 257.644 129.209C264.065 130.52 266.634 133.144 269.203 139.702C271.771 146.261 275.624 147.573 275.624 151.508C275.624 155.443 267.918 159.378 266.634 158.066C266.634 154.131 266.56 148.884 266.56 146.261C266.56 143.637 258.928 146.261 257.644 135.767Z" fill="white"/>
<path fill-rule="evenodd" clip-rule="evenodd" d="M257.644 135.767C257.484 134.466 257.644 142.325 253.789 143.637C249.936 144.95 247.368 146.261 247.368 146.261C247.368 146.261 245.285 155.7 247.853 158.323C244 159.635 242.231 160.689 239.662 155.443C237.093 150.196 240.946 144.95 243.515 141.014C246.083 137.079 251.221 127.897 257.644 129.209C264.065 130.52 266.634 133.144 269.203 139.702C271.771 146.261 275.624 147.572 275.624 151.508C275.624 155.443 267.918 159.378 266.634 158.066C266.634 154.131 266.56 148.884 266.56 146.261C266.56 143.637 258.928 146.261 257.644 135.767Z" stroke="#1C3C55"/>
<path d="M208.674 397.492C208.674 391.298 209.07 386.684 210.086 378.641C210.158 378.074 210.158 378.074 210.229 377.51C210.301 376.947 210.33 376.717 210.371 376.387C210.478 375.539 210.564 374.833 210.645 374.156C211.502 366.943 211.724 361.785 211.225 355.615C210.994 352.762 210.504 349.139 209.707 344.19C209.392 342.231 209.043 340.148 208.544 337.227C208.452 336.691 208.358 336.141 208.23 335.394C208.072 334.468 208.072 334.468 207.911 333.532C207.65 332.009 207.455 330.864 207.264 329.733C206.571 325.636 206.031 322.31 205.546 319.107C204.08 309.427 203.244 301.531 203.132 295.082C203.071 291.617 205.064 291.575 205.114 294.855C205.212 301.221 206.04 309.097 207.507 318.792C207.99 321.982 208.529 325.296 209.22 329.382C209.411 330.512 209.606 331.655 209.866 333.177C210.027 334.113 210.027 334.113 210.185 335.039C210.313 335.787 210.408 336.336 210.499 336.873C210.999 339.8 211.349 341.889 211.666 343.856C212.471 348.855 212.967 352.525 213.204 355.445C213.716 361.775 213.488 367.064 212.615 374.404C212.534 375.086 212.447 375.797 212.34 376.649C212.299 376.98 212.269 377.211 212.198 377.774C212.127 378.339 212.127 378.339 212.055 378.905C211.048 386.867 210.66 391.406 210.66 397.492C210.66 410.096 214.924 425.698 220.183 432.534C220.298 432.684 220.37 432.863 220.391 433.052C221.387 441.954 219.356 441.936 218.45 433.57C212.967 426.226 208.674 410.384 208.674 397.492ZM241.28 311.608C240.378 317.893 239.474 324.178 238.626 330.044C238.588 330.306 238.588 330.306 238.55 330.568C236.663 343.615 235.343 352.581 234.839 355.698C234.216 359.544 233.94 361.584 233.781 363.632C233.604 365.916 233.577 367.58 233.577 373.889C233.577 375.737 233.595 376.542 233.736 381.877C234.115 396.188 239.469 423.07 237.878 432.894C237.788 433.451 237.277 433.827 236.736 433.734C236.195 433.641 236.161 433.554 236.22 432.894C237.068 423.549 232.127 396.12 231.752 381.933C231.61 376.571 231.592 375.765 231.592 373.889C231.592 367.519 231.619 365.829 231.802 363.469C231.966 361.349 232.249 359.26 232.88 355.362C233.382 352.263 234.702 343.297 236.586 330.267C236.624 330.005 236.624 330.005 236.662 329.743C237.51 323.878 238.414 317.593 239.315 311.309C239.631 309.109 239.923 307.067 240.185 305.234C240.331 304.213 240.331 304.213 240.429 303.532C240.5 303.035 240.5 303.034 240.515 302.93C240.677 301.795 242.252 301.753 242.47 302.878C242.496 303.008 242.545 303.262 242.618 303.629C242.738 304.243 242.879 304.955 243.04 305.758C243.498 308.05 244.017 310.605 244.587 313.356C246.215 321.217 247.925 329.077 249.635 336.411C250.672 340.861 251.678 344.983 252.644 348.712C255.103 358.21 256.157 364.291 256.495 370.554C256.673 373.865 256.673 375.915 256.567 383.59C256.518 387.123 256.496 389.472 256.496 392.247C256.496 392.812 256.051 393.269 255.503 393.269C254.955 393.269 254.511 392.812 254.511 392.247C254.511 389.46 254.532 387.102 254.581 383.561C254.687 375.94 254.687 373.912 254.512 370.668C254.183 364.558 253.152 358.611 250.725 349.238C249.755 345.492 248.745 341.354 247.704 336.888C245.99 329.535 244.277 321.659 242.645 313.783C242.296 312.099 241.967 310.488 241.658 308.966C241.536 309.817 241.41 310.699 241.28 311.608ZM275.045 434.757C274.995 434.377 275.156 433.999 275.462 433.78C276.789 432.831 277.572 431.544 277.572 430.276C277.572 428.758 277.893 424.126 278.848 410.861C278.977 408.999 279.093 407.278 279.201 405.633C279.797 396.548 280.118 389.926 280.118 385.69C280.118 381.587 279.702 379.203 277.408 368.371C274.854 356.306 274.041 349.155 275.033 340.979C277.658 319.354 276.85 296.53 273.912 274.763C273.324 270.412 275.286 270.098 275.878 274.481C278.839 296.411 279.652 319.406 277.003 341.233C276.046 349.115 276.839 356.083 279.348 367.936C281.681 378.954 282.103 381.373 282.103 385.69C282.103 389.987 281.781 396.64 281.182 405.77C281.074 407.418 280.957 409.142 280.828 411.006C279.873 424.296 279.557 428.843 279.557 430.276C279.557 432.091 278.623 433.798 277.096 435.072C277.318 436.556 275.276 436.507 275.045 434.757Z" fill="#1C3C55"/>
<path d="M219.843 437.201C220.215 440.605 224.01 447.767 224.01 447.767C224.01 447.767 215.944 457.154 213.911 459.526C211.877 461.898 216.427 461.843 218.764 461.139C221.101 460.436 233.44 455.168 233.44 451.479C233.44 447.789 237.032 437.959 237.032 431.779" stroke="#1C3C55"/>
<path d="M255.552 391.716C253.619 413.207 253.831 426.895 256.186 432.781C259.718 441.609 259.668 453.782 261.243 455.786C262.818 457.79 272.208 461.102 275.087 462.084C277.965 463.066 280.668 463.202 280.668 461.555C280.668 459.908 271.186 452.95 271.186 450.353C271.186 448.622 272.776 443.432 275.957 434.783" stroke="black"/>
<path fill-rule="evenodd" clip-rule="evenodd" d="M286.242 74.3491L296.64 17.1362C297.015 15.0755 295.063 12.2302 293.043 11.804L263.774 5.63091C261.753 5.20475 258.952 7.04783 258.578 9.10855L248.179 66.3215C247.805 68.3822 249.763 71.1781 251.783 71.6042L281.052 77.7773C283.073 78.2035 285.867 76.4098 286.242 74.3491Z" fill="white"/>
<path d="M287.647 74.0722C287.034 77.4402 283.858 79.6054 280.553 78.9084L251.833 72.8502C248.528 72.1532 246.346 68.8578 246.959 65.4899L257.171 9.38586C257.784 6.01788 260.959 3.85267 264.264 4.54971L292.985 10.6079C296.29 11.3049 298.472 14.6003 297.859 17.9682L287.647 74.0722ZM286.24 74.3356L296.648 17.1527C297.023 15.093 295.072 12.2488 293.051 11.8225L263.777 5.64787C261.757 5.2216 258.955 7.06332 258.58 9.12297L248.172 66.3059C247.797 68.3655 249.755 71.1603 251.776 71.5866L281.049 77.7613C283.07 78.1875 285.865 76.3952 286.24 74.3356Z" fill="#89FCA3"/>
<path fill-rule="evenodd" clip-rule="evenodd" d="M285.387 63.0208C285.018 65.0395 283.037 66.3211 280.962 65.8833L255.912 60.5993C253.837 60.1616 252.454 58.1703 252.823 56.1516L260.642 13.3564C261.011 11.3377 262.992 10.0562 265.068 10.4939L290.117 15.7779C292.192 16.2156 293.576 18.2069 293.207 20.2256L285.387 63.0208Z" fill="white"/>
<path d="M285.387 63.0208C285.018 65.0395 283.037 66.3211 280.962 65.8833L255.912 60.5993C253.837 60.1616 252.454 58.1703 252.823 56.1516L260.642 13.3564C261.011 11.3377 262.992 10.0562 265.068 10.4939L290.117 15.7779C292.192 16.2156 293.576 18.2069 293.207 20.2256L285.387 63.0208ZM284.009 62.8522L291.831 20.0426C292.01 19.0633 291.061 17.4224 289.725 17.1405L264.575 11.8355C263.858 11.6842 262.215 12.4598 262.016 13.5502L254.158 56.5555C254.03 57.2542 254.865 58.9331 256.222 59.2193L281.553 64.5626C282.5 64.7622 283.865 63.6384 284.009 62.8522Z" fill="#1C3C55"/>
<path d="M267.716 73.1488C268.523 73.3181 269.271 73.1748 269.936 72.7245C270.601 72.2743 271.017 71.6291 271.169 70.8112C271.321 69.9956 271.17 69.2261 270.721 68.5283C270.269 67.8269 269.628 67.3832 268.819 67.2136C268.015 67.0448 267.262 67.1854 266.584 67.6304C265.904 68.0775 265.476 68.7361 265.319 69.5833C265.161 70.4309 265.316 71.2042 265.775 71.8766C266.231 72.5453 266.885 72.9744 267.716 73.1488ZM264.366 69.3834C264.572 68.2779 265.148 67.3903 266.049 66.7985C266.937 66.215 267.947 66.0266 268.999 66.2474C270.064 66.4709 270.932 67.0714 271.528 67.9978C272.117 68.9127 272.32 69.9442 272.122 71.0111C271.922 72.0841 271.361 72.9544 270.483 73.5491C269.604 74.1437 268.594 74.337 267.537 74.1151C266.461 73.8894 265.586 73.315 264.982 72.43C264.37 71.5333 264.161 70.4879 264.366 69.3834Z" fill="#95AABF"/>
<path fill-rule="evenodd" clip-rule="evenodd" d="M280.542 35.5594C280.381 37.4278 279.427 38.3709 278.131 38.7413C280.004 39.6369 281.02 41.0956 280.286 43.7301C279.363 47.0114 276.781 47.3966 273.28 46.8586L272.636 50.3703L270.567 49.9341L271.201 46.4774C270.677 46.367 270.126 46.2508 269.565 46.1181L268.928 49.5885L266.86 49.1523L267.503 45.6405C267.02 45.5385 266.539 45.4228 266.042 45.318L263.355 44.7514L264.234 42.3191C265.747 42.6667 265.725 42.6335 265.725 42.6335C266.302 42.7553 266.542 42.3624 266.633 42.0955L267.648 36.5593L267.863 36.6047C267.785 36.5739 267.704 36.5569 267.65 36.5456L268.375 32.5931C268.375 32.1355 268.198 31.583 267.351 31.4046C267.351 31.4046 267.383 31.3827 265.86 31.0901L266.274 28.8316L269.12 29.4459C269.536 29.5337 269.979 29.6272 270.425 29.7069L271.062 26.2365L273.13 26.6728L272.506 30.0743C273.06 30.1767 273.613 30.2791 274.15 30.3924L274.769 27.0184L276.838 27.4546L276.201 30.925C278.818 31.72 280.773 33.0048 280.542 35.5594ZM276.278 42.4558C276.778 39.729 272.325 39.2049 270.928 38.9103L270.075 43.5651C271.472 43.8597 275.795 45.0861 276.278 42.4558ZM276.526 35.6994C276.983 33.2068 273.261 32.8081 272.092 32.5617L271.317 36.7895C272.486 37.036 276.089 38.0819 276.526 35.6994Z" fill="#89FCA3"/>
<path fill-rule="evenodd" clip-rule="evenodd" d="M534.574 249.863H587.234C591.64 249.863 595.212 253.543 595.212 258.082V292.603C595.212 297.142 591.64 300.822 587.234 300.822H534.574C530.168 300.822 526.595 297.142 526.595 292.603V258.082C526.595 253.543 530.168 249.863 534.574 249.863Z" fill="white"/>
<path d="M534.574 251.507C531.049 251.507 528.191 254.451 528.191 258.082V292.603C528.191 296.234 531.049 299.178 534.574 299.178H587.234C590.759 299.178 593.617 296.234 593.617 292.603V258.082C593.617 254.451 590.759 251.507 587.234 251.507H534.574ZM534.574 249.863H587.234C591.64 249.863 595.212 253.543 595.212 258.082V292.603C595.212 297.142 591.64 300.822 587.234 300.822H534.574C530.168 300.822 526.595 297.142 526.595 292.603V258.082C526.595 253.543 530.168 249.863 534.574 249.863Z" fill="#1C1F30"/>
<path d="M534.574 254.795C532.812 254.795 531.383 256.267 531.383 258.082V292.603C531.383 294.419 532.812 295.89 534.574 295.89H587.234C588.997 295.89 590.425 294.419 590.425 292.603V258.082C590.425 256.267 588.997 254.795 587.234 254.795H534.574ZM534.574 253.151H587.234C589.878 253.151 592.021 255.359 592.021 258.082V292.603C592.021 295.326 589.878 297.534 587.234 297.534H534.574C531.93 297.534 529.787 295.326 529.787 292.603V258.082C529.787 255.359 531.93 253.151 534.574 253.151Z" fill="#89FCA3"/>
<path d="M532.978 307.397H590.425C594.285 307.397 597.505 304.574 598.244 300.822H525.159C525.899 304.574 529.118 307.397 532.978 307.397ZM590.425 309.041H532.978C527.691 309.041 523.404 304.625 523.404 299.178H600C600 304.625 595.713 309.041 590.425 309.041Z" fill="#95AABF"/>
<path fill-rule="evenodd" clip-rule="evenodd" d="M568.845 269.437C569.05 271.603 568.166 272.906 566.776 273.639C569.081 274.209 570.534 275.626 570.25 278.803C569.887 282.761 567.044 283.82 562.97 284.048V288.201H560.538V284.113C559.923 284.113 559.275 284.113 558.612 284.097V288.201H556.18V284.048C555.612 284.048 555.043 284.031 554.459 284.031H551.301L551.79 281.051C553.575 281.083 553.543 281.051 553.543 281.051C554.222 281.051 554.412 280.546 554.459 280.22V273.672H554.712C554.617 273.655 554.522 273.655 554.459 273.655V268.98C554.364 268.459 554.048 267.873 553.054 267.873C553.054 267.873 553.085 267.84 551.301 267.873V265.201L554.648 265.218C555.138 265.218 555.659 265.218 556.18 265.201V261.097H558.612V265.12C559.259 265.104 559.907 265.087 560.538 265.087V261.097H562.97V265.201C566.097 265.478 568.576 266.472 568.845 269.437ZM565.449 278.314C565.449 275.089 560.302 275.561 558.659 275.561V281.067C560.302 281.067 565.449 281.425 565.449 278.314ZM564.328 270.56C564.328 267.612 560.033 268.052 558.659 268.052V273.053C560.033 273.053 564.328 273.378 564.328 270.56Z" fill="#89FCA3"/>
<path fill-rule="evenodd" clip-rule="evenodd" d="M118.691 459.423H96.7595C94.7834 459.423 93.166 457.758 93.166 455.723V412.018C93.166 409.983 94.7834 408.318 96.7595 408.318H118.691C120.667 408.318 122.284 409.983 122.284 412.018V455.723C122.284 457.758 120.667 459.423 118.691 459.423Z" stroke="#95AABF"/>
<path fill-rule="evenodd" clip-rule="evenodd" d="M64.3355 412.906C64.4908 414.545 63.8218 415.531 62.7706 416.085C64.5147 416.517 65.6137 417.589 65.3987 419.992C65.1239 422.986 62.9737 423.787 59.8917 423.96V427.102H58.052V424.009C57.5861 424.009 57.0963 424.009 56.5946 423.997V427.102H54.755V423.96C54.3249 423.96 53.8949 423.947 53.4529 423.947H51.0637L51.434 421.692C52.7839 421.717 52.76 421.692 52.76 421.692C53.2737 421.692 53.417 421.31 53.4529 421.064V416.11H53.644C53.5723 416.098 53.5007 416.098 53.4529 416.098V412.561C53.3812 412.167 53.1423 411.723 52.3897 411.723C52.3897 411.723 52.4136 411.699 51.0637 411.723V409.702L53.5962 409.715C53.9665 409.715 54.3608 409.715 54.755 409.702V406.597H56.5946V409.641C57.0844 409.628 57.5742 409.616 58.052 409.616V406.597H59.8917V409.702C62.2569 409.912 64.1324 410.664 64.3355 412.906ZM61.7671 419.622C61.7671 417.182 57.8728 417.54 56.6305 417.54V421.705C57.8728 421.705 61.7671 421.976 61.7671 419.622ZM60.919 413.757C60.919 411.526 57.6697 411.859 56.6305 411.859V415.642C57.6697 415.642 60.919 415.888 60.919 413.757Z" fill="#89FCA3"/>
<path fill-rule="evenodd" clip-rule="evenodd" d="M115.666 419.22H99.7837C98.6917 419.22 97.7983 418.301 97.7983 417.176C97.7983 416.052 98.6917 415.132 99.7837 415.132H115.666C116.758 415.132 117.652 416.052 117.652 417.176C117.652 418.301 116.758 419.22 115.666 419.22Z" fill="white" stroke="#1C3C55"/>
<path fill-rule="evenodd" clip-rule="evenodd" d="M115.666 426.034H99.7837C98.6917 426.034 97.7983 425.115 97.7983 423.99C97.7983 422.866 98.6917 421.946 99.7837 421.946H115.666C116.758 421.946 117.652 422.866 117.652 423.99C117.652 425.115 116.758 426.034 115.666 426.034Z" fill="white" stroke="#1C3C55"/>
<path fill-rule="evenodd" clip-rule="evenodd" d="M115.666 432.848H99.7837C98.6917 432.848 97.7983 431.929 97.7983 430.804C97.7983 429.68 98.6917 428.76 99.7837 428.76H115.666C116.758 428.76 117.652 429.68 117.652 430.804C117.652 431.929 116.758 432.848 115.666 432.848Z" fill="white"/>
<path fill-rule="evenodd" clip-rule="evenodd" d="M109.71 451.246C109.71 452.375 108.821 453.291 107.725 453.291C106.629 453.291 105.74 452.375 105.74 451.246C105.74 450.118 106.629 449.202 107.725 449.202C108.821 449.202 109.71 450.118 109.71 451.246Z" fill="#95AABF"/>
<path d="M54.7113 439.374V449.941H64.9697V439.374H54.7113ZM52.6597 437.26H67.0214V452.055H52.6597V437.26Z" fill="#95AABF"/>
<path d="M73.6124 452.466H44.4727C41.9352 452.466 39.7765 454.181 38.9764 456.575H79.1087C78.3087 454.181 76.1499 452.466 73.6124 452.466ZM44.4727 450.411H73.6124C77.904 450.411 81.383 454.091 81.383 458.63H36.7021C36.7021 454.091 40.1812 450.411 44.4727 450.411Z" fill="#95AABF"/>
<path d="M32.6355 394.878C31.5552 394.878 30.6795 395.774 30.6795 396.879V434.902C30.6795 436.007 31.5552 436.903 32.6355 436.903H85.4495C86.5299 436.903 87.4056 436.007 87.4056 434.902V396.879C87.4056 395.774 86.5299 394.878 85.4495 394.878H32.6355ZM32.6355 392.877H85.4495C87.6102 392.877 89.3617 394.669 89.3617 396.879V434.902C89.3617 437.112 87.6102 438.904 85.4495 438.904H32.6355C30.4749 438.904 28.7234 437.112 28.7234 434.902V396.879C28.7234 394.669 30.4749 392.877 32.6355 392.877Z" fill="#89FCA3"/>
<path d="M36.7022 401.096V430.685H81.383V401.096H36.7022ZM35.1064 399.452H82.9788V432.329H35.1064V399.452Z" fill="#1C3C55"/>
</svg>
