<svg width="601" height="600" viewBox="0 0 601 600" fill="none" xmlns="http://www.w3.org/2000/svg">
<g opacity="0.2">
<path d="M141.003 498.923L81.814 272.723L465.827 205.125L415.226 245.757L168.901 119.091" stroke="#979797"/>
<path d="M296.513 316.835L314.949 529.536L82.0988 272.507" stroke="#979797"/>
<path d="M441.418 396.978L315.636 528.242" stroke="#979797"/>
<path d="M299.865 315.883L302.414 139.145L167.107 119.947" stroke="#979797"/>
<path fill-rule="evenodd" clip-rule="evenodd" d="M441.688 398.572L561.012 343.184L466.323 204.108L441.688 398.572Z" stroke="#979797"/>
<path d="M82.5313 271.993L169.175 116.702L142.365 499.561L315.661 530.871L465.6 205.713L301.385 137.617L143.16 499.191" stroke="#979797"/>
<path d="M139.413 500.985L244.644 451.98L288.851 317.958" stroke="#979797"/>
<path d="M442.293 398.392L241.094 452.31" stroke="#979797"/>
</g>
<path d="M305.419 140.872C303.912 141.573 302.135 140.834 301.448 139.223C300.761 137.611 301.425 135.737 302.932 135.036C304.438 134.335 306.216 135.074 306.902 136.685C307.589 138.297 306.925 140.171 305.419 140.872Z" fill="#C4C4C4"/>
<path d="M308.616 148.376C303.236 150.879 296.887 148.241 294.435 142.485C291.982 136.729 294.355 130.035 299.734 127.532C305.114 125.03 311.463 127.667 313.915 133.423C316.368 139.179 313.995 145.873 308.616 148.376Z" stroke="#CACACA"/>
<path d="M140.775 501.125C139.269 501.826 137.491 501.087 136.804 499.476C136.117 497.864 136.782 495.989 138.288 495.289C139.794 494.588 141.572 495.326 142.259 496.938C142.945 498.55 142.281 500.424 140.775 501.125Z" fill="#C4C4C4"/>
<path d="M143.972 508.629C138.593 511.131 132.244 508.494 129.791 502.738C127.339 496.982 129.711 490.287 135.09 487.785C140.47 485.282 146.819 487.92 149.271 493.676C151.724 499.431 149.351 506.126 143.972 508.629Z" stroke="#CACACA"/>
<path d="M154.925 354.462C153.419 355.163 151.641 354.424 150.954 352.813C150.268 351.201 150.932 349.326 152.438 348.626C153.945 347.925 155.722 348.663 156.409 350.275C157.096 351.887 156.431 353.761 154.925 354.462Z" fill="#C4C4C4"/>
<path d="M158.123 361.966C152.743 364.468 146.394 361.831 143.942 356.075C141.489 350.319 143.862 343.624 149.241 341.122C154.62 338.619 160.969 341.257 163.422 347.013C165.875 352.768 163.502 359.463 158.123 361.966Z" stroke="#CACACA"/>
<path d="M443.76 399.72C442.254 400.42 440.476 399.682 439.789 398.07C439.102 396.459 439.767 394.584 441.273 393.883C442.779 393.183 444.557 393.921 445.244 395.533C445.93 397.144 445.266 399.019 443.76 399.72Z" fill="#C4C4C4"/>
<path d="M446.957 407.223C441.578 409.726 435.229 407.089 432.776 401.333C430.324 395.577 432.696 388.882 438.076 386.38C443.455 383.877 449.804 386.514 452.257 392.27C454.709 398.026 452.337 404.721 446.957 407.223Z" stroke="#CACACA"/>
<path d="M316.625 531.045C315.04 531.784 313.173 531.012 312.454 529.321C311.735 527.631 312.436 525.662 314.021 524.923C315.606 524.185 317.473 524.957 318.192 526.647C318.911 528.337 318.209 530.306 316.625 531.045Z" fill="#7B7B7B"/>
<path d="M416.473 248.459C414.888 249.197 413.021 248.426 412.302 246.735C411.583 245.045 412.285 243.076 413.869 242.337C415.454 241.599 417.321 242.37 418.04 244.061C418.759 245.751 418.057 247.72 416.473 248.459Z" fill="#7B7B7B"/>
<path d="M172.161 123.384C170.576 124.123 168.709 123.351 167.99 121.66C167.271 119.97 167.973 118.001 169.557 117.262C171.142 116.524 173.009 117.296 173.728 118.986C174.447 120.676 173.745 122.645 172.161 123.384Z" fill="#7B7B7B"/>
<path d="M468.57 209.492C466.084 210.648 463.15 209.429 462.016 206.769C460.883 204.109 461.979 201.015 464.466 199.858C466.952 198.701 469.886 199.92 471.02 202.58C472.153 205.241 471.057 208.335 468.57 209.492Z" fill="#89FCA3"/>
<path d="M473.048 220.001C465.138 223.681 455.801 219.803 452.194 211.338C448.587 202.874 452.077 193.029 459.987 189.348C467.898 185.668 477.235 189.547 480.842 198.011C484.448 206.476 480.959 216.321 473.048 220.001Z" stroke="#89FCA3"/>
<path d="M86.019 279.7C83.5327 280.857 80.5983 279.638 79.4648 276.977C78.3312 274.317 79.4278 271.223 81.914 270.066C84.4003 268.91 87.3347 270.129 88.4682 272.789C89.6018 275.449 88.5052 278.543 86.019 279.7Z" fill="#89FCA3"/>
<path d="M90.4969 290.21C82.5862 293.89 73.2494 290.011 69.6427 281.547C66.036 273.082 69.5251 263.237 77.4358 259.557C85.3466 255.877 94.6833 259.755 98.2901 268.22C101.897 276.684 98.4077 286.529 90.4969 290.21Z" stroke="#89FCA3"/>
<path fill-rule="evenodd" clip-rule="evenodd" d="M582.016 496.407L580.75 512.828C580.75 512.828 585.814 519.67 589.612 523.775C592.144 526.512 587.08 526.512 584.548 525.143C582.016 523.775 571.186 520.727 571.889 516.933C573.155 510.091 570.623 497.775 570.623 497.775L582.016 496.407Z" fill="white" stroke="#1C3C55"/>
<path fill-rule="evenodd" clip-rule="evenodd" d="M547.719 497.889L549.014 514.354C549.014 514.354 545.29 520.021 541.242 523.959C537.011 528.075 542.537 528.075 545.128 526.703C547.719 525.331 558.801 522.275 558.082 518.471C556.786 511.61 559.377 499.261 559.377 499.261L547.719 497.889Z" fill="white" stroke="#1C3C55"/>
<path fill-rule="evenodd" clip-rule="evenodd" d="M549.502 289.461C549.502 289.461 532.865 309.771 534.145 349.037C535.425 388.303 546.943 506.102 546.943 506.102C546.943 506.102 559.74 508.81 559.74 503.394C559.74 497.812 562.3 372.055 563.58 357.161C564.859 342.267 568.699 503.394 568.699 503.394C568.699 503.394 571.258 506.102 576.377 506.102C581.496 506.102 582.776 504.748 582.776 504.748C582.776 504.748 594.294 386.949 593.014 357.161C591.734 327.373 586.615 288.107 582.776 284.045C578.937 279.982 549.502 289.461 549.502 289.461Z" fill="white" stroke="#1C3C55"/>
<path fill-rule="evenodd" clip-rule="evenodd" d="M526.164 300.174C530.014 282.655 536.431 273.221 544.131 255.702C551.832 238.183 558.249 238.183 558.249 238.183C564.666 236.836 559.532 219.317 559.532 219.317H569.799C568.516 222.012 568.516 235.488 571.083 236.836C573.65 238.183 580.067 235.488 586.484 246.269C592.901 257.05 599.318 288.045 596.751 312.302C594.184 336.56 585.2 354.079 581.35 355.426C577.5 356.774 580.273 351.862 583.917 336.56C586.484 325.779 586.149 318.201 585.616 310.939C584.747 299.098 581.699 287.501 580.096 284.071C580.364 284.692 583.497 296.219 577.5 297.479C571.083 298.826 550.548 298.826 546.698 296.131C545.146 295.045 547.245 285.671 545.949 282.05C541.367 284.548 528.72 335.252 527.447 340.603C526.164 345.993 528.73 345.993 527.447 351.384C526.164 356.774 524.88 355.426 523.597 350.036C522.313 344.645 522.313 317.693 526.164 300.174Z" fill="white" stroke="#1C3C55"/>
<path fill-rule="evenodd" clip-rule="evenodd" d="M567.337 225.931C567.337 225.931 565.873 228.523 560.693 228.175C555.511 227.828 551.961 222.21 552.383 215.514C552.803 208.819 553.391 199.446 561.247 198.628C569.103 197.81 572.484 206.106 571.979 214.14C571.476 222.175 567.337 225.931 567.337 225.931Z" fill="white" stroke="#1C3C55"/>
<path fill-rule="evenodd" clip-rule="evenodd" d="M539.852 311.598C539.812 312.291 569.996 316.267 587.508 312.651C585.663 298.164 583.082 280.499 583.082 280.499C583.082 280.499 595.986 279.141 599.857 277.782C601.147 277.782 593.405 251.965 589.534 245.171C586.717 240.227 580.501 232.941 572.759 234.3C572.759 238.377 570.178 239.735 566.307 239.735C562.436 239.735 561.146 235.659 561.146 235.659C561.146 235.659 557.275 235.659 553.404 239.735C549.532 243.812 535.338 272.347 535.338 272.347L544.371 276.423C544.371 276.423 540.495 300.574 539.852 311.598Z" fill="#89FCA3" stroke="black"/>
<path fill-rule="evenodd" clip-rule="evenodd" d="M566.163 193.954C566.163 193.954 563.86 190.156 562.71 191.421C561.559 192.687 561.559 195.22 560.407 195.22C559.256 195.22 555.802 191.421 555.802 193.954C555.802 196.487 556.953 196.487 554.65 197.752C552.349 199.018 552.349 200.285 552.349 201.551C552.349 202.816 555.802 201.551 556.953 202.816C558.106 204.084 554.868 205.277 558.647 205.277C562.573 205.277 558.864 206.089 562.427 208.048C564.946 209.434 565.011 205.349 566.163 205.349C567.313 205.349 563.686 209.434 566.206 209.434C568.779 209.434 567.465 209.434 568.725 208.048C570.545 206.047 568.165 208.819 569.985 210.819C571.245 212.205 571.917 211.68 570.767 212.946C569.616 214.213 567.313 215.479 568.464 216.744C569.616 218.011 567.313 221.81 570.767 220.543C574.22 219.277 571.917 219.277 573.069 216.744C574.22 214.213 574.22 214.213 575.373 214.213C576.523 214.213 579.976 212.946 578.826 210.413L576.523 205.349C576.523 205.349 578.826 204.084 578.826 201.551C578.826 199.018 574.22 200.285 574.22 200.285C574.22 200.285 576.523 196.487 574.22 195.22C571.917 193.954 570.767 196.487 569.616 196.487C568.464 196.487 569.616 193.954 566.163 193.954Z" fill="white" stroke="#1C3C55"/>
<path fill-rule="evenodd" clip-rule="evenodd" d="M181.004 349.081V328.454L81.7278 327.443C74.2954 327.339 68.8966 328.319 65.5314 330.381C62.1663 332.444 60.6886 335.857 61.0985 340.619" fill="white"/>
<path d="M181.004 349.081V328.454L81.7278 327.443C74.2954 327.339 68.8966 328.319 65.5314 330.381C62.1663 332.444 60.6886 335.857 61.0985 340.619" stroke="#1C3C55"/>
<path fill-rule="evenodd" clip-rule="evenodd" d="M186.305 351.198L185.379 424.673C185.305 430.505 180.801 435.191 175.271 435.191H71.6189C66.0358 435.191 61.5099 430.419 61.5099 424.532V340.396H176.196C181.779 340.396 186.305 345.169 186.305 351.056C186.305 351.103 186.305 351.15 186.305 351.198Z" fill="white" stroke="#1C3C55"/>
<path fill-rule="evenodd" clip-rule="evenodd" d="M185.681 374.374V394.36H155.018C151.877 394.36 149.331 391.676 149.331 388.364V380.37C149.331 377.058 151.877 374.374 155.018 374.374H185.681Z" stroke="#1C3C55"/>
<path d="M158.809 379.037C161.6 379.037 163.863 381.423 163.863 384.367C163.863 387.311 161.6 389.697 158.809 389.697C156.017 389.697 153.754 387.311 153.754 384.367C153.754 381.423 156.017 379.037 158.809 379.037Z" stroke="#1C3C55"/>
<path fill-rule="evenodd" clip-rule="evenodd" d="M477.956 349.081V328.454L378.679 327.443C371.247 327.339 365.848 328.319 362.483 330.381C359.118 332.444 357.64 335.857 358.05 340.619" fill="white"/>
<path d="M477.956 349.081V328.454L378.679 327.443C371.247 327.339 365.848 328.319 362.483 330.381C359.118 332.444 357.64 335.857 358.05 340.619" stroke="#1C3C55"/>
<path fill-rule="evenodd" clip-rule="evenodd" d="M483.256 351.198L482.33 424.673C482.257 430.505 477.753 435.191 472.222 435.191H368.57C362.987 435.191 358.461 430.419 358.461 424.532V340.396H473.148C478.731 340.396 483.257 345.169 483.257 351.056C483.257 351.103 483.257 351.15 483.256 351.198Z" fill="white" stroke="#1C3C55"/>
<path fill-rule="evenodd" clip-rule="evenodd" d="M482.633 374.374V394.36H451.969C448.829 394.36 446.283 391.676 446.283 388.364V380.37C446.283 377.058 448.829 374.374 451.969 374.374H482.633Z" stroke="#1C3C55"/>
<path d="M455.76 379.037C458.552 379.037 460.815 381.423 460.815 384.367C460.815 387.311 458.552 389.697 455.76 389.697C452.969 389.697 450.706 387.311 450.706 384.367C450.706 381.423 452.969 379.037 455.76 379.037Z" stroke="#1C3C55"/>
<path d="M435 328L285.615 259.739L101 328" stroke="#89FCA3"/>
<path fill-rule="evenodd" clip-rule="evenodd" d="M377.787 292.79L377.272 291.107L363.762 294.421L367.795 308.415L369.435 308.044L365.916 295.732L377.787 292.79Z" fill="#89FCA3"/>
<path fill-rule="evenodd" clip-rule="evenodd" d="M181.786 307.757L183.371 308.337L188.991 294.965L175.965 289.94L175.259 291.544L186.701 295.99L181.786 307.757Z" fill="#89FCA3"/>
<path fill-rule="evenodd" clip-rule="evenodd" d="M277.483 347.059L278.195 346.932C309.825 339.036 331.925 309.478 331.925 275.054V227.049L329.919 226.953C311.434 226.075 293.764 219.556 278.821 208.097L277.588 207.152L276.355 208.097C261.404 219.558 243.736 226.077 225.26 226.953L223.253 227.049V275.054C223.253 309.475 245.354 339.033 276.996 346.936L277.483 347.059Z" fill="white" stroke="#1C3C55"/>
<path fill-rule="evenodd" clip-rule="evenodd" d="M277.491 341.729L278.153 341.612C307.576 334.317 328.134 307.011 328.134 275.211V230.863L326.268 230.774C309.073 229.963 292.636 223.94 278.735 213.355L277.588 212.482L276.441 213.355C262.533 223.942 246.098 229.965 228.911 230.774L227.044 230.863V275.21C227.044 307.009 247.603 334.315 277.037 341.616L277.491 341.729Z" fill="white" stroke="#95AABF"/>
<path fill-rule="evenodd" clip-rule="evenodd" d="M268.01 249.79C278.057 249.79 286.231 258.276 286.231 268.705C286.231 271.024 285.834 273.277 285.051 275.416L302.473 293.503C302.722 293.762 302.862 294.112 302.862 294.478V304.375C302.862 305.136 302.267 305.753 301.534 305.753H293.677C293.326 305.753 292.988 305.608 292.739 305.35L290.092 302.606C289.842 302.347 289.702 301.996 289.702 301.63V298.256H286.455C285.722 298.256 285.127 297.638 285.127 296.877V295.526H283.826C283.092 295.526 282.498 294.909 282.498 294.148V291.182H279.641C279.289 291.182 278.951 291.036 278.702 290.778L274.477 286.393C272.416 287.207 270.245 287.619 268.01 287.619C257.964 287.619 249.79 279.134 249.79 268.705C249.79 258.276 257.963 249.79 268.01 249.79Z" stroke="#1C3C55"/>
<path d="M264.953 255.12C267.74 255.12 270.008 257.511 270.008 260.45C270.008 263.389 267.74 265.78 264.953 265.78C262.166 265.78 259.899 263.389 259.899 260.45C259.899 257.511 262.166 255.12 264.953 255.12Z" stroke="#1C3C55"/>
<path d="M281.38 277.772L299.071 296.426" stroke="#1C3C55"/>
<path d="M278.853 280.437L289.594 291.762" stroke="#1C3C55"/>
</svg>
