<svg width="800" height="230" viewBox="0 0 1920 430" fill="none" xmlns="http://www.w3.org/2000/svg">
<path d="M1920 390.839L1881.89 410.072L1812.28 421.752L1783.48 426.535L1734.27 391.42L1669.46 403.142L1650.26 384.284H1565.05L1533.85 372.521L1491.84 374.921L1419.83 400.822L1368.22 377.323H1331.02L1286.61 407.861L1253.01 403.167L1179.8 403.142H1142.59L1077.78 374.949L1040.58 403.142L985.368 410.227L926.56 410.2L888.155 398.364L832.947 410.072L806.543 393.593L756.136 388.948L658.922 424.21L628.918 410.072L594.113 398.337L531.704 407.78L466.895 398.337L394.885 414.833L274.868 403.142L219.661 386.712L164.453 412.585L111.646 429.015L64.839 400.822L34.8347 390.205L0 393.768V0L1920 0V390.839Z" fill="black" fill-opacity="0.7"/>
<path d="M1735.14 390.199L1734.63 389.831L1734.01 389.944L1669.96 401.527L1651.31 383.214L1650.88 382.784H1650.26H1565.32L1534.37 371.118L1534.08 371.006L1533.76 371.024L1491.75 373.423L1491.54 373.436L1491.33 373.509L1419.9 399.204L1368.84 375.958L1368.55 375.823H1368.22H1331.02H1330.55L1330.17 376.087L1286.24 406.295L1253.21 401.681L1253.11 401.667L1253.01 401.667L1179.8 401.642H1142.9L1078.38 373.573L1077.57 373.223L1076.88 373.753L1039.99 401.705L985.273 408.727L926.786 408.7L888.596 396.931L888.224 396.816L887.843 396.897L833.228 408.479L807.337 392.32L807.035 392.132L806.681 392.099L756.274 387.455L755.94 387.424L755.625 387.538L658.997 422.587L629.558 408.715L629.479 408.678L629.397 408.651L594.593 396.915L594.248 396.799L593.889 396.854L531.7 406.264L467.112 396.852L466.834 396.812L466.56 396.875L394.788 413.316L275.158 401.663L220.089 385.274L219.541 385.111L219.024 385.354L163.909 411.184L111.843 427.383L65.6129 399.537L65.4827 399.459L65.3394 399.408L35.3351 388.791L35.0173 388.678L34.6821 388.713L1.5 392.107V1.5L1918.5 1.5V389.916L1881.42 408.631L1812.04 420.273L1812.04 420.273L1783.85 424.954L1735.14 390.199Z" stroke="#333333" stroke-opacity="0.9" stroke-width="3"/>
<mask id="mask0_53_6" style="mask-type:luminance" maskUnits="userSpaceOnUse" x="0" y="0" width="1920" height="430">
<path d="M1920 390.839L1881.89 410.072L1812.28 421.752L1783.48 426.535L1734.27 391.42L1669.46 403.142L1650.26 384.284H1565.05L1533.85 372.521L1491.84 374.921L1419.83 400.822L1368.22 377.323H1331.02L1286.61 407.861L1253.01 403.167L1179.8 403.142H1142.59L1077.78 374.949L1040.58 403.142L985.368 410.227L926.56 410.2L888.155 398.364L832.947 410.072L806.543 393.593L756.136 388.948L658.922 424.21L628.918 410.072L594.113 398.337L531.704 407.78L466.895 398.337L394.885 414.833L274.868 403.142L219.661 386.712L164.453 412.585L111.646 429.015L64.839 400.822L34.8347 390.205L0 393.768V0L1920 0V390.839Z" fill="white"/>
<path d="M1735.14 390.199L1734.63 389.831L1734.01 389.944L1669.96 401.527L1651.31 383.214L1650.88 382.784H1650.26H1565.32L1534.37 371.118L1534.08 371.006L1533.76 371.024L1491.75 373.423L1491.54 373.436L1491.33 373.509L1419.9 399.204L1368.84 375.958L1368.55 375.823H1368.22H1331.02H1330.55L1330.17 376.087L1286.24 406.295L1253.21 401.681L1253.11 401.667L1253.01 401.667L1179.8 401.642H1142.9L1078.38 373.573L1077.57 373.223L1076.88 373.753L1039.99 401.705L985.273 408.727L926.786 408.7L888.596 396.931L888.224 396.816L887.843 396.897L833.228 408.479L807.337 392.32L807.035 392.132L806.681 392.099L756.274 387.455L755.94 387.424L755.625 387.538L658.997 422.587L629.558 408.715L629.479 408.678L629.397 408.651L594.593 396.915L594.248 396.799L593.889 396.854L531.7 406.264L467.112 396.852L466.834 396.812L466.56 396.875L394.788 413.316L275.158 401.663L220.089 385.274L219.541 385.111L219.024 385.354L163.909 411.184L111.843 427.383L65.6129 399.537L65.4827 399.459L65.3394 399.408L35.3351 388.791L35.0173 388.678L34.6821 388.713L1.5 392.107V1.5L1918.5 1.5V389.916L1881.42 408.631L1812.04 420.273L1812.04 420.273L1783.85 424.954L1735.14 390.199Z" stroke="black" stroke-opacity="0.44" stroke-width="3"/>
</mask>
<g mask="url(#mask0_53_6)">
<g opacity="0.6">
<path d="M1827.5 339.213L1558.5 507.189L1504.5 256.341L1456 567.705L1406.66 550.522L1240.5 419.842L879.955 275.099L458.696 507.189L384 277.059" stroke="#7CFFC8" stroke-width="3"/>
<path d="M1826.5 340.432L1892 506.586M1892 506.586L1778.5 538.471L1665 518.362L1892 506.586ZM1892 506.586L1504.17 251.052L1230.65 389.712L1044.02 506.586L879.5 277.669L836.257 623.78L384 277.669L154.922 520.46M103.621 274.496L0 506.586L154.922 520.46M103.621 274.496L154.922 520.46M103.621 274.496L201.5 398.929L341.5 550.658L154.922 520.46" stroke="#7CFFC8" stroke-width="3"/>
</g>
</g>
</svg>
